<svg width="804" height="383" viewBox="0 0 804 383" fill="none" xmlns="http://www.w3.org/2000/svg">
<circle cx="191.5" cy="191.5" r="191.5" fill="#1F9BEE"/>
<path d="M64.45 257V138H103.65C116.133 138 125.467 141.15 131.65 147.45C137.95 153.75 141.1 162.15 141.1 172.65V181.925C141.1 192.425 137.95 200.883 131.65 207.3C125.467 213.6 116.133 216.75 103.65 216.75H85.45V257H64.45ZM103.65 158.125H85.45V196.625H103.65C108.783 196.625 112.692 195.342 115.375 192.775C118.175 190.208 119.575 186.592 119.575 181.925V172.65C119.575 168.1 118.175 164.542 115.375 161.975C112.692 159.408 108.783 158.125 103.65 158.125ZM233.888 236.875V257H164.938V138H232.138V158.125H185.938V186.65H226.888V206.775H185.938V236.875H233.888ZM244.587 158.125V138H332.087V158.125H298.837V257H277.837V158.125H244.587Z" fill="white"/>
<path d="M418.475 151.475H397.3V130.65H418.475V151.475ZM417.95 257H397.825V168.275H417.95V257ZM434.127 158.125V138H521.627V158.125H488.377V257H467.377V158.125H434.127ZM558.441 151.475H537.266V130.65H558.441V151.475ZM557.916 257H537.791V168.275H557.916V257ZM672.442 184.9V209.925C672.442 225.092 668.651 237.05 661.067 245.8C653.484 254.433 642.401 258.75 627.817 258.75C613.117 258.75 601.976 254.433 594.392 245.8C586.926 237.05 583.192 225.092 583.192 209.925V184.9C583.192 169.733 586.926 157.833 594.392 149.2C601.976 140.567 613.117 136.25 627.817 136.25C642.401 136.25 653.484 140.567 661.067 149.2C668.651 157.833 672.442 169.733 672.442 184.9ZM650.917 184.9C650.917 175.333 649.051 168.158 645.317 163.375C641.584 158.475 635.751 156.025 627.817 156.025C619.884 156.025 614.051 158.475 610.317 163.375C606.584 168.158 604.717 175.333 604.717 184.9V209.925C604.717 219.492 606.584 226.725 610.317 231.625C614.051 236.525 619.884 238.975 627.817 238.975C635.751 238.975 641.584 236.525 645.317 231.625C649.051 226.725 650.917 219.492 650.917 209.925V184.9ZM700.206 257V138H719.456C728.673 150.017 737.423 162.733 745.706 176.15C753.989 189.45 761.514 203.158 768.281 217.275L766.706 181.75V138H786.831V257H767.581C760.114 242.3 752.356 227.542 744.306 212.725C736.373 197.792 727.914 183.733 718.931 170.55L720.331 211.5V257H700.206Z" fill="#1F9BEE"/>
<mask id="path-4-outside-1_13_3" maskUnits="userSpaceOnUse" x="488" y="272" width="198" height="47" fill="black">
<rect fill="white" x="488" y="272" width="198" height="47"/>
<path d="M489.72 317V273.8H509.1C512.26 273.8 514.96 274.34 517.2 275.42C519.48 276.5 521.22 278.02 522.42 279.98C523.66 281.94 524.28 284.26 524.28 286.94C524.28 289.58 523.66 291.9 522.42 293.9C521.18 295.9 519.44 297.46 517.2 298.58C514.96 299.66 512.26 300.2 509.1 300.2H495.78V294.08H508.74C511.22 294.08 513.12 293.44 514.44 292.16C515.8 290.88 516.48 289.14 516.48 286.94C516.48 284.78 515.8 283.08 514.44 281.84C513.12 280.6 511.22 279.98 508.74 279.98H497.52V317H489.72ZM539.002 317.6C536.882 317.6 535.042 317.16 533.482 316.28C531.962 315.36 530.782 314.12 529.942 312.56C529.142 311 528.742 309.24 528.742 307.28V286.4H536.302V305.72C536.302 307.6 536.762 309.02 537.682 309.98C538.642 310.94 539.982 311.42 541.702 311.42C543.262 311.42 544.622 311.06 545.782 310.34C546.982 309.62 547.922 308.62 548.602 307.34C549.322 306.02 549.682 304.54 549.682 302.9L550.462 310.22C549.462 312.46 547.962 314.26 545.962 315.62C544.002 316.94 541.682 317.6 539.002 317.6ZM549.922 317V309.8H549.682V286.4H557.302V317H549.922ZM576.72 317.6C572.48 317.6 569.1 316.72 566.58 314.96C564.06 313.16 562.68 310.68 562.44 307.52H569.34C569.54 309.08 570.28 310.26 571.56 311.06C572.84 311.86 574.56 312.26 576.72 312.26C578.68 312.26 580.14 311.96 581.1 311.36C582.1 310.72 582.6 309.82 582.6 308.66C582.6 307.82 582.32 307.14 581.76 306.62C581.2 306.06 580.14 305.6 578.58 305.24L573.66 304.1C570.3 303.38 567.8 302.26 566.16 300.74C564.56 299.18 563.76 297.24 563.76 294.92C563.76 292.08 564.84 289.86 567 288.26C569.2 286.62 572.22 285.8 576.06 285.8C579.86 285.8 582.9 286.62 585.18 288.26C587.5 289.86 588.78 292.08 589.02 294.92H582.12C581.92 293.68 581.28 292.74 580.2 292.1C579.16 291.46 577.72 291.14 575.88 291.14C574.16 291.14 572.86 291.42 571.98 291.98C571.1 292.5 570.66 293.28 570.66 294.32C570.66 295.12 571 295.8 571.68 296.36C572.36 296.88 573.5 297.34 575.1 297.74L580.38 298.94C583.38 299.62 585.64 300.8 587.16 302.48C588.72 304.16 589.5 306.14 589.5 308.42C589.5 311.34 588.38 313.6 586.14 315.2C583.9 316.8 580.76 317.6 576.72 317.6ZM594.668 317V273.8H602.228V317H594.668ZM616.148 317V297.68C616.148 295.8 615.668 294.38 614.708 293.42C613.748 292.46 612.348 291.98 610.508 291.98C608.908 291.98 607.468 292.34 606.188 293.06C604.948 293.78 603.968 294.78 603.248 296.06C602.568 297.34 602.228 298.82 602.228 300.5L601.448 293.18C602.488 290.94 604.008 289.16 606.008 287.84C608.008 286.48 610.408 285.8 613.208 285.8C616.528 285.8 619.108 286.74 620.948 288.62C622.828 290.5 623.768 293 623.768 296.12V317H616.148ZM645.147 317.6C641.907 317.6 639.067 316.92 636.627 315.56C634.227 314.2 632.347 312.32 630.987 309.92C629.667 307.52 629.007 304.76 629.007 301.64C629.007 298.52 629.667 295.78 630.987 293.42C632.347 291.02 634.227 289.16 636.627 287.84C639.027 286.48 641.827 285.8 645.027 285.8C648.067 285.8 650.707 286.44 652.947 287.72C655.187 288.96 656.927 290.72 658.167 293C659.407 295.28 660.027 297.94 660.027 300.98C660.027 301.54 660.007 302.06 659.967 302.54C659.927 303.02 659.867 303.5 659.787 303.98H633.687V298.7H653.967L652.407 300.14C652.407 297.26 651.747 295.1 650.427 293.66C649.107 292.22 647.267 291.5 644.907 291.5C642.347 291.5 640.307 292.38 638.787 294.14C637.307 295.9 636.567 298.44 636.567 301.76C636.567 305.04 637.307 307.56 638.787 309.32C640.307 311.04 642.447 311.9 645.207 311.9C646.807 311.9 648.207 311.6 649.407 311C650.607 310.4 651.487 309.48 652.047 308.24H659.187C658.187 311.12 656.487 313.4 654.087 315.08C651.727 316.76 648.747 317.6 645.147 317.6ZM665.684 317V286.4H673.064V293.78H673.244V317H665.684ZM673.244 301.04L672.464 293.78C673.184 291.18 674.404 289.2 676.124 287.84C677.844 286.48 679.904 285.8 682.304 285.8C683.144 285.8 683.744 285.88 684.104 286.04V293.18C683.904 293.1 683.624 293.06 683.264 293.06C682.904 293.02 682.464 293 681.944 293C679.024 293 676.844 293.64 675.404 294.92C673.964 296.2 673.244 298.24 673.244 301.04Z"/>
</mask>
<path d="M489.72 317V273.8H509.1C512.26 273.8 514.96 274.34 517.2 275.42C519.48 276.5 521.22 278.02 522.42 279.98C523.66 281.94 524.28 284.26 524.28 286.94C524.28 289.58 523.66 291.9 522.42 293.9C521.18 295.9 519.44 297.46 517.2 298.58C514.96 299.66 512.26 300.2 509.1 300.2H495.78V294.08H508.74C511.22 294.08 513.12 293.44 514.44 292.16C515.8 290.88 516.48 289.14 516.48 286.94C516.48 284.78 515.8 283.08 514.44 281.84C513.12 280.6 511.22 279.98 508.74 279.98H497.52V317H489.72ZM539.002 317.6C536.882 317.6 535.042 317.16 533.482 316.28C531.962 315.36 530.782 314.12 529.942 312.56C529.142 311 528.742 309.24 528.742 307.28V286.4H536.302V305.72C536.302 307.6 536.762 309.02 537.682 309.98C538.642 310.94 539.982 311.42 541.702 311.42C543.262 311.42 544.622 311.06 545.782 310.34C546.982 309.62 547.922 308.62 548.602 307.34C549.322 306.02 549.682 304.54 549.682 302.9L550.462 310.22C549.462 312.46 547.962 314.26 545.962 315.62C544.002 316.94 541.682 317.6 539.002 317.6ZM549.922 317V309.8H549.682V286.4H557.302V317H549.922ZM576.72 317.6C572.48 317.6 569.1 316.72 566.58 314.96C564.06 313.16 562.68 310.68 562.44 307.52H569.34C569.54 309.08 570.28 310.26 571.56 311.06C572.84 311.86 574.56 312.26 576.72 312.26C578.68 312.26 580.14 311.96 581.1 311.36C582.1 310.72 582.6 309.82 582.6 308.66C582.6 307.82 582.32 307.14 581.76 306.62C581.2 306.06 580.14 305.6 578.58 305.24L573.66 304.1C570.3 303.38 567.8 302.26 566.16 300.74C564.56 299.18 563.76 297.24 563.76 294.92C563.76 292.08 564.84 289.86 567 288.26C569.2 286.62 572.22 285.8 576.06 285.8C579.86 285.8 582.9 286.62 585.18 288.26C587.5 289.86 588.78 292.08 589.02 294.92H582.12C581.92 293.68 581.28 292.74 580.2 292.1C579.16 291.46 577.72 291.14 575.88 291.14C574.16 291.14 572.86 291.42 571.98 291.98C571.1 292.5 570.66 293.28 570.66 294.32C570.66 295.12 571 295.8 571.68 296.36C572.36 296.88 573.5 297.34 575.1 297.74L580.38 298.94C583.38 299.62 585.64 300.8 587.16 302.48C588.72 304.16 589.5 306.14 589.5 308.42C589.5 311.34 588.38 313.6 586.14 315.2C583.9 316.8 580.76 317.6 576.72 317.6ZM594.668 317V273.8H602.228V317H594.668ZM616.148 317V297.68C616.148 295.8 615.668 294.38 614.708 293.42C613.748 292.46 612.348 291.98 610.508 291.98C608.908 291.98 607.468 292.34 606.188 293.06C604.948 293.78 603.968 294.78 603.248 296.06C602.568 297.34 602.228 298.82 602.228 300.5L601.448 293.18C602.488 290.94 604.008 289.16 606.008 287.84C608.008 286.48 610.408 285.8 613.208 285.8C616.528 285.8 619.108 286.74 620.948 288.62C622.828 290.5 623.768 293 623.768 296.12V317H616.148ZM645.147 317.6C641.907 317.6 639.067 316.92 636.627 315.56C634.227 314.2 632.347 312.32 630.987 309.92C629.667 307.52 629.007 304.76 629.007 301.64C629.007 298.52 629.667 295.78 630.987 293.42C632.347 291.02 634.227 289.16 636.627 287.84C639.027 286.48 641.827 285.8 645.027 285.8C648.067 285.8 650.707 286.44 652.947 287.72C655.187 288.96 656.927 290.72 658.167 293C659.407 295.28 660.027 297.94 660.027 300.98C660.027 301.54 660.007 302.06 659.967 302.54C659.927 303.02 659.867 303.5 659.787 303.98H633.687V298.7H653.967L652.407 300.14C652.407 297.26 651.747 295.1 650.427 293.66C649.107 292.22 647.267 291.5 644.907 291.5C642.347 291.5 640.307 292.38 638.787 294.14C637.307 295.9 636.567 298.44 636.567 301.76C636.567 305.04 637.307 307.56 638.787 309.32C640.307 311.04 642.447 311.9 645.207 311.9C646.807 311.9 648.207 311.6 649.407 311C650.607 310.4 651.487 309.48 652.047 308.24H659.187C658.187 311.12 656.487 313.4 654.087 315.08C651.727 316.76 648.747 317.6 645.147 317.6ZM665.684 317V286.4H673.064V293.78H673.244V317H665.684ZM673.244 301.04L672.464 293.78C673.184 291.18 674.404 289.2 676.124 287.84C677.844 286.48 679.904 285.8 682.304 285.8C683.144 285.8 683.744 285.88 684.104 286.04V293.18C683.904 293.1 683.624 293.06 683.264 293.06C682.904 293.02 682.464 293 681.944 293C679.024 293 676.844 293.64 675.404 294.92C673.964 296.2 673.244 298.24 673.244 301.04Z" fill="black"/>
<path d="M489.72 317H488.72V318H489.72V317ZM489.72 273.8V272.8H488.72V273.8H489.72ZM517.2 275.42L516.766 276.321L516.772 276.324L517.2 275.42ZM522.42 279.98L521.567 280.502L521.571 280.508L521.575 280.515L522.42 279.98ZM522.42 293.9L523.27 294.427L523.27 294.427L522.42 293.9ZM517.2 298.58L517.634 299.481L517.641 299.478L517.647 299.474L517.2 298.58ZM495.78 300.2H494.78V301.2H495.78V300.2ZM495.78 294.08V293.08H494.78V294.08H495.78ZM514.44 292.16L513.755 291.432L513.749 291.437L513.744 291.442L514.44 292.16ZM514.44 281.84L513.755 282.569L513.761 282.574L513.766 282.579L514.44 281.84ZM497.52 279.98V278.98H496.52V279.98H497.52ZM497.52 317V318H498.52V317H497.52ZM490.72 317V273.8H488.72V317H490.72ZM489.72 274.8H509.1V272.8H489.72V274.8ZM509.1 274.8C512.149 274.8 514.693 275.321 516.766 276.321L517.634 274.519C515.227 273.359 512.371 272.8 509.1 272.8V274.8ZM516.772 276.324C518.894 277.329 520.478 278.724 521.567 280.502L523.273 279.458C521.962 277.316 520.066 275.671 517.628 274.516L516.772 276.324ZM521.575 280.515C522.699 282.291 523.28 284.419 523.28 286.94H525.28C525.28 284.101 524.621 281.589 523.265 279.445L521.575 280.515ZM523.28 286.94C523.28 289.417 522.7 291.55 521.57 293.373L523.27 294.427C524.62 292.25 525.28 289.743 525.28 286.94H523.28ZM521.57 293.373C520.434 295.205 518.838 296.643 516.753 297.686L517.647 299.474C520.042 298.277 521.926 296.595 523.27 294.427L521.57 293.373ZM516.766 297.679C514.693 298.679 512.149 299.2 509.1 299.2V301.2C512.371 301.2 515.227 300.641 517.634 299.481L516.766 297.679ZM509.1 299.2H495.78V301.2H509.1V299.2ZM496.78 300.2V294.08H494.78V300.2H496.78ZM495.78 295.08H508.74V293.08H495.78V295.08ZM508.74 295.08C511.387 295.08 513.572 294.395 515.136 292.878L513.744 291.442C512.668 292.485 511.053 293.08 508.74 293.08V295.08ZM515.125 292.888C516.722 291.386 517.48 289.362 517.48 286.94H515.48C515.48 288.918 514.878 290.374 513.755 291.432L515.125 292.888ZM517.48 286.94C517.48 284.552 516.718 282.564 515.114 281.101L513.766 282.579C514.882 283.596 515.48 285.008 515.48 286.94H517.48ZM515.125 281.111C513.56 279.641 511.379 278.98 508.74 278.98V280.98C511.061 280.98 512.68 281.559 513.755 282.569L515.125 281.111ZM508.74 278.98H497.52V280.98H508.74V278.98ZM496.52 279.98V317H498.52V279.98H496.52ZM497.52 316H489.72V318H497.52V316ZM533.482 316.28L532.964 317.136L532.977 317.143L532.991 317.151L533.482 316.28ZM529.942 312.56L529.052 313.016L529.057 313.025L529.062 313.034L529.942 312.56ZM528.742 286.4V285.4H527.742V286.4H528.742ZM536.302 286.4H537.302V285.4H536.302V286.4ZM537.682 309.98L536.96 310.672L536.967 310.68L536.975 310.687L537.682 309.98ZM545.782 310.34L545.268 309.483L545.261 309.486L545.255 309.49L545.782 310.34ZM548.602 307.34L547.724 306.861L547.719 306.871L548.602 307.34ZM549.682 302.9L550.676 302.794L548.682 302.9H549.682ZM550.462 310.22L551.375 310.628L551.485 310.382L551.456 310.114L550.462 310.22ZM545.962 315.62L546.521 316.449L546.524 316.447L545.962 315.62ZM549.922 317H548.922V318H549.922V317ZM549.922 309.8H550.922V308.8H549.922V309.8ZM549.682 309.8H548.682V310.8H549.682V309.8ZM549.682 286.4V285.4H548.682V286.4H549.682ZM557.302 286.4H558.302V285.4H557.302V286.4ZM557.302 317V318H558.302V317H557.302ZM539.002 316.6C537.022 316.6 535.358 316.19 533.973 315.409L532.991 317.151C534.726 318.13 536.742 318.6 539.002 318.6V316.6ZM534 315.424C532.632 314.597 531.578 313.488 530.823 312.086L529.062 313.034C529.986 314.752 531.292 316.123 532.964 317.136L534 315.424ZM530.832 312.104C530.112 310.701 529.742 309.1 529.742 307.28H527.742C527.742 309.38 528.172 311.299 529.052 313.016L530.832 312.104ZM529.742 307.28V286.4H527.742V307.28H529.742ZM528.742 287.4H536.302V285.4H528.742V287.4ZM535.302 286.4V305.72H537.302V286.4H535.302ZM535.302 305.72C535.302 307.751 535.799 309.461 536.96 310.672L538.404 309.288C537.725 308.579 537.302 307.449 537.302 305.72H535.302ZM536.975 310.687C538.169 311.881 539.791 312.42 541.702 312.42V310.42C540.173 310.42 539.115 309.999 538.389 309.273L536.975 310.687ZM541.702 312.42C543.421 312.42 544.969 312.021 546.309 311.19L545.255 309.49C544.275 310.099 543.103 310.42 541.702 310.42V312.42ZM546.297 311.197C547.658 310.381 548.723 309.244 549.485 307.809L547.719 306.871C547.121 307.996 546.306 308.859 545.268 309.483L546.297 311.197ZM549.48 307.819C550.287 306.339 550.682 304.692 550.682 302.9H548.682C548.682 304.388 548.357 305.701 547.724 306.861L549.48 307.819ZM548.688 303.006L549.468 310.326L551.456 310.114L550.676 302.794L548.688 303.006ZM549.549 309.812C548.623 311.885 547.244 313.539 545.4 314.793L546.524 316.447C548.68 314.981 550.301 313.035 551.375 310.628L549.549 309.812ZM545.403 314.791C543.63 315.985 541.511 316.6 539.002 316.6V318.6C541.853 318.6 544.374 317.895 546.521 316.449L545.403 314.791ZM550.922 317V309.8H548.922V317H550.922ZM549.922 308.8H549.682V310.8H549.922V308.8ZM550.682 309.8V286.4H548.682V309.8H550.682ZM549.682 287.4H557.302V285.4H549.682V287.4ZM556.302 286.4V317H558.302V286.4H556.302ZM557.302 316H549.922V318H557.302V316ZM566.58 314.96L565.999 315.774L566.007 315.78L566.58 314.96ZM562.44 307.52V306.52H561.361L561.443 307.596L562.44 307.52ZM569.34 307.52L570.332 307.393L570.22 306.52H569.34V307.52ZM571.56 311.06L572.09 310.212L572.09 310.212L571.56 311.06ZM581.1 311.36L581.63 312.208L581.639 312.202L581.1 311.36ZM581.76 306.62L581.053 307.327L581.066 307.34L581.08 307.353L581.76 306.62ZM578.58 305.24L578.354 306.214L578.355 306.214L578.58 305.24ZM573.66 304.1L573.886 303.126L573.878 303.124L573.87 303.122L573.66 304.1ZM566.16 300.74L565.462 301.456L565.471 301.465L565.48 301.473L566.16 300.74ZM567 288.26L567.595 289.064L567.598 289.062L567 288.26ZM585.18 288.26L584.596 289.072L584.604 289.078L584.612 289.083L585.18 288.26ZM589.02 294.92V295.92H590.108L590.016 294.836L589.02 294.92ZM582.12 294.92L581.133 295.079L581.268 295.92H582.12V294.92ZM580.2 292.1L579.676 292.952L579.683 292.956L579.69 292.96L580.2 292.1ZM571.98 291.98L572.489 292.841L572.503 292.833L572.517 292.824L571.98 291.98ZM571.68 296.36L571.044 297.132L571.058 297.143L571.073 297.154L571.68 296.36ZM575.1 297.74L574.857 298.71L574.868 298.713L574.878 298.715L575.1 297.74ZM580.38 298.94L580.158 299.915L580.159 299.915L580.38 298.94ZM587.16 302.48L586.418 303.151L586.427 303.16L587.16 302.48ZM586.14 315.2L586.721 316.014L586.721 316.014L586.14 315.2ZM576.72 316.6C572.609 316.6 569.452 315.746 567.153 314.14L566.007 315.78C568.748 317.694 572.351 318.6 576.72 318.6V316.6ZM567.161 314.146C564.889 312.523 563.655 310.317 563.437 307.444L561.443 307.596C561.705 311.043 563.231 313.797 565.999 315.774L567.161 314.146ZM562.44 308.52H569.34V306.52H562.44V308.52ZM568.348 307.647C568.584 309.49 569.484 310.942 571.03 311.908L572.09 310.212C571.076 309.578 570.496 308.67 570.332 307.393L568.348 307.647ZM571.03 311.908C572.523 312.841 574.449 313.26 576.72 313.26V311.26C574.671 311.26 573.157 310.879 572.09 310.212L571.03 311.908ZM576.72 313.26C578.747 313.26 580.433 312.956 581.63 312.208L580.57 310.512C579.847 310.964 578.613 311.26 576.72 311.26V313.26ZM581.639 312.202C582.918 311.384 583.6 310.171 583.6 308.66H581.6C581.6 309.469 581.282 310.056 580.561 310.518L581.639 312.202ZM583.6 308.66C583.6 307.573 583.226 306.616 582.44 305.887L581.08 307.353C581.414 307.664 581.6 308.067 581.6 308.66H583.6ZM582.467 305.913C581.696 305.142 580.395 304.633 578.805 304.266L578.355 306.214C579.885 306.567 580.704 306.978 581.053 307.327L582.467 305.913ZM578.806 304.266L573.886 303.126L573.434 305.074L578.354 306.214L578.806 304.266ZM573.87 303.122C570.599 302.421 568.295 301.356 566.84 300.007L565.48 301.473C567.305 303.164 570.001 304.339 573.45 305.078L573.87 303.122ZM566.858 300.024C565.459 298.66 564.76 296.982 564.76 294.92H562.76C562.76 297.498 563.661 299.7 565.462 301.456L566.858 300.024ZM564.76 294.92C564.76 292.376 565.706 290.463 567.595 289.064L566.405 287.456C563.974 289.257 562.76 291.784 562.76 294.92H564.76ZM567.598 289.062C569.568 287.593 572.351 286.8 576.06 286.8V284.8C572.089 284.8 568.832 285.647 566.402 287.458L567.598 289.062ZM576.06 286.8C579.723 286.8 582.537 287.591 584.596 289.072L585.764 287.448C583.263 285.649 579.997 284.8 576.06 284.8V286.8ZM584.612 289.083C586.683 290.511 587.808 292.458 588.024 295.004L590.016 294.836C589.752 291.702 588.317 289.209 585.748 287.437L584.612 289.083ZM589.02 293.92H582.12V295.92H589.02V293.92ZM583.107 294.761C582.86 293.228 582.045 292.031 580.71 291.24L579.69 292.96C580.515 293.449 580.98 294.132 581.133 295.079L583.107 294.761ZM580.724 291.248C579.466 290.474 577.818 290.14 575.88 290.14V292.14C577.622 292.14 578.854 292.446 579.676 292.952L580.724 291.248ZM575.88 290.14C574.081 290.14 572.557 290.428 571.443 291.136L572.517 292.824C573.163 292.412 574.239 292.14 575.88 292.14V290.14ZM571.471 291.119C570.28 291.823 569.66 292.934 569.66 294.32H571.66C571.66 293.626 571.92 293.177 572.489 292.841L571.471 291.119ZM569.66 294.32C569.66 295.451 570.16 296.404 571.044 297.132L572.316 295.588C571.84 295.196 571.66 294.789 571.66 294.32H569.66ZM571.073 297.154C571.92 297.803 573.225 298.302 574.857 298.71L575.343 296.77C573.775 296.378 572.8 295.957 572.287 295.566L571.073 297.154ZM574.878 298.715L580.158 299.915L580.602 297.965L575.322 296.765L574.878 298.715ZM580.159 299.915C583.029 300.566 585.078 301.669 586.418 303.151L587.902 301.809C586.202 299.931 583.731 298.674 580.601 297.965L580.159 299.915ZM586.427 303.16C587.817 304.657 588.5 306.394 588.5 308.42H590.5C590.5 305.886 589.623 303.663 587.893 301.8L586.427 303.16ZM588.5 308.42C588.5 311.04 587.518 312.987 585.559 314.386L586.721 316.014C589.242 314.213 590.5 311.64 590.5 308.42H588.5ZM585.559 314.386C583.551 315.82 580.644 316.6 576.72 316.6V318.6C580.876 318.6 584.249 317.78 586.721 316.014L585.559 314.386ZM594.668 317H593.668V318H594.668V317ZM594.668 273.8V272.8H593.668V273.8H594.668ZM602.228 273.8H603.228V272.8H602.228V273.8ZM602.228 317V318H603.228V317H602.228ZM616.148 317H615.148V318H616.148V317ZM606.188 293.06L605.698 292.188L605.686 292.195L606.188 293.06ZM603.248 296.06L602.377 295.57L602.371 295.58L602.365 295.591L603.248 296.06ZM602.228 300.5L601.234 300.606L603.228 300.5H602.228ZM601.448 293.18L600.541 292.759L600.425 293.01L600.454 293.286L601.448 293.18ZM606.008 287.84L606.559 288.675L606.571 288.667L606.008 287.84ZM620.948 288.62L620.234 289.32L620.241 289.327L620.948 288.62ZM623.768 317V318H624.768V317H623.768ZM595.668 317V273.8H593.668V317H595.668ZM594.668 274.8H602.228V272.8H594.668V274.8ZM601.228 273.8V317H603.228V273.8H601.228ZM602.228 316H594.668V318H602.228V316ZM617.148 317V297.68H615.148V317H617.148ZM617.148 297.68C617.148 295.639 616.626 293.923 615.416 292.713L614.001 294.127C614.711 294.837 615.148 295.961 615.148 297.68H617.148ZM615.416 292.713C614.209 291.507 612.517 290.98 610.508 290.98V292.98C612.18 292.98 613.288 293.413 614.001 294.127L615.416 292.713ZM610.508 290.98C608.752 290.98 607.141 291.377 605.698 292.188L606.679 293.932C607.796 293.303 609.064 292.98 610.508 292.98V290.98ZM605.686 292.195C604.288 293.007 603.182 294.138 602.377 295.57L604.12 296.55C604.755 295.422 605.609 294.553 606.691 293.925L605.686 292.195ZM602.365 295.591C601.597 297.037 601.228 298.683 601.228 300.5H603.228C603.228 298.957 603.54 297.643 604.132 296.529L602.365 295.591ZM603.223 300.394L602.443 293.074L600.454 293.286L601.234 300.606L603.223 300.394ZM602.355 293.601C603.32 291.524 604.719 289.889 606.559 288.675L605.458 287.005C603.298 288.431 601.657 290.356 600.541 292.759L602.355 293.601ZM606.571 288.667C608.38 287.437 610.576 286.8 613.208 286.8V284.8C610.24 284.8 607.637 285.523 605.446 287.013L606.571 288.667ZM613.208 286.8C616.334 286.8 618.628 287.679 620.234 289.319L621.663 287.921C619.589 285.801 616.723 284.8 613.208 284.8V286.8ZM620.241 289.327C621.901 290.987 622.768 293.216 622.768 296.12H624.768C624.768 292.784 623.755 290.013 621.656 287.913L620.241 289.327ZM622.768 296.12V317H624.768V296.12H622.768ZM623.768 316H616.148V318H623.768V316ZM636.627 315.56L636.134 316.43L636.14 316.433L636.627 315.56ZM630.987 309.92L630.11 310.402L630.117 310.413L630.987 309.92ZM630.987 293.42L630.117 292.927L630.114 292.932L630.987 293.42ZM636.627 287.84L637.109 288.716L637.12 288.71L636.627 287.84ZM652.947 287.72L652.451 288.588L652.462 288.595L652.947 287.72ZM658.167 293L657.288 293.478L657.288 293.478L658.167 293ZM659.967 302.54L660.963 302.623L660.963 302.623L659.967 302.54ZM659.787 303.98V304.98H660.634L660.773 304.144L659.787 303.98ZM633.687 303.98H632.687V304.98H633.687V303.98ZM633.687 298.7V297.7H632.687V298.7H633.687ZM653.967 298.7L654.645 299.435L656.524 297.7H653.967V298.7ZM652.407 300.14H651.407V302.424L653.085 300.875L652.407 300.14ZM650.427 293.66L649.69 294.336L649.69 294.336L650.427 293.66ZM638.787 294.14L638.03 293.486L638.021 293.496L638.787 294.14ZM638.787 309.32L638.021 309.964L638.029 309.973L638.037 309.982L638.787 309.32ZM652.047 308.24V307.24H651.401L651.135 307.828L652.047 308.24ZM659.187 308.24L660.131 308.568L660.593 307.24H659.187V308.24ZM654.087 315.08L653.513 314.261L653.507 314.265L654.087 315.08ZM645.147 316.6C642.05 316.6 639.382 315.951 637.114 314.687L636.14 316.433C638.751 317.889 641.764 318.6 645.147 318.6V316.6ZM637.12 314.69C634.877 313.419 633.128 311.67 631.857 309.427L630.117 310.413C631.566 312.97 633.576 314.981 636.134 316.43L637.12 314.69ZM631.863 309.438C630.635 307.205 630.007 304.615 630.007 301.64H628.007C628.007 304.905 628.699 307.835 630.111 310.402L631.863 309.438ZM630.007 301.64C630.007 298.664 630.635 296.097 631.859 293.908L630.114 292.932C628.698 295.463 628.007 298.376 628.007 301.64H630.007ZM631.857 293.913C633.126 291.673 634.872 289.946 637.109 288.716L636.145 286.964C633.581 288.374 631.567 290.367 630.117 292.927L631.857 293.913ZM637.12 288.71C639.347 287.448 641.972 286.8 645.027 286.8V284.8C641.682 284.8 638.707 285.512 636.134 286.97L637.12 288.71ZM645.027 286.8C647.924 286.8 650.387 287.409 652.451 288.588L653.443 286.852C651.027 285.471 648.21 284.8 645.027 284.8V286.8ZM652.462 288.595C654.534 289.741 656.138 291.363 657.288 293.478L659.045 292.522C657.716 290.077 655.84 288.179 653.431 286.845L652.462 288.595ZM657.288 293.478C658.436 295.588 659.027 298.078 659.027 300.98H661.027C661.027 297.802 660.378 294.972 659.045 292.522L657.288 293.478ZM659.027 300.98C659.027 301.517 659.008 302.009 658.97 302.457L660.963 302.623C661.006 302.111 661.027 301.563 661.027 300.98H659.027ZM658.97 302.457C658.932 302.909 658.876 303.362 658.8 303.816L660.773 304.144C660.858 303.638 660.921 303.131 660.963 302.623L658.97 302.457ZM659.787 302.98H633.687V304.98H659.787V302.98ZM634.687 303.98V298.7H632.687V303.98H634.687ZM633.687 299.7H653.967V297.7H633.687V299.7ZM653.288 297.965L651.728 299.405L653.085 300.875L654.645 299.435L653.288 297.965ZM653.407 300.14C653.407 297.126 652.718 294.68 651.164 292.984L649.69 294.336C650.776 295.52 651.407 297.394 651.407 300.14H653.407ZM651.164 292.984C649.616 291.295 647.484 290.5 644.907 290.5V292.5C647.05 292.5 648.598 293.145 649.69 294.336L651.164 292.984ZM644.907 290.5C642.089 290.5 639.76 291.483 638.03 293.486L639.544 294.794C640.853 293.277 642.604 292.5 644.907 292.5V290.5ZM638.021 293.496C636.335 295.502 635.567 298.307 635.567 301.76H637.567C637.567 298.573 638.278 296.298 639.552 294.784L638.021 293.496ZM635.567 301.76C635.567 305.177 636.337 307.96 638.021 309.964L639.552 308.676C638.277 307.16 637.567 304.903 637.567 301.76H635.567ZM638.037 309.982C639.785 311.96 642.223 312.9 645.207 312.9V310.9C642.67 310.9 640.828 310.12 639.536 308.658L638.037 309.982ZM645.207 312.9C646.932 312.9 648.491 312.576 649.854 311.894L648.96 310.106C647.923 310.624 646.681 310.9 645.207 310.9V312.9ZM649.854 311.894C651.263 311.19 652.305 310.098 652.958 308.652L651.135 307.828C650.669 308.862 649.951 309.61 648.96 310.106L649.854 311.894ZM652.047 309.24H659.187V307.24H652.047V309.24ZM658.242 307.912C657.308 310.602 655.734 312.707 653.513 314.261L654.66 315.899C657.24 314.093 659.065 311.638 660.131 308.568L658.242 307.912ZM653.507 314.265C651.353 315.798 648.59 316.6 645.147 316.6V318.6C648.904 318.6 652.1 317.722 654.667 315.895L653.507 314.265ZM665.684 317H664.684V318H665.684V317ZM665.684 286.4V285.4H664.684V286.4H665.684ZM673.064 286.4H674.064V285.4H673.064V286.4ZM673.064 293.78H672.064V294.78H673.064V293.78ZM673.244 293.78H674.244V292.78H673.244V293.78ZM673.244 317V318H674.244V317H673.244ZM673.244 301.04L672.25 301.147L674.244 301.04H673.244ZM672.464 293.78L671.5 293.513L671.449 293.697L671.47 293.887L672.464 293.78ZM676.124 287.84L675.504 287.056L676.124 287.84ZM684.104 286.04H685.104V285.39L684.51 285.126L684.104 286.04ZM684.104 293.18L683.733 294.108L685.104 294.657V293.18H684.104ZM683.264 293.06L683.154 294.054L683.209 294.06H683.264V293.06ZM675.404 294.92L674.74 294.173L674.74 294.173L675.404 294.92ZM666.684 317V286.4H664.684V317H666.684ZM665.684 287.4H673.064V285.4H665.684V287.4ZM672.064 286.4V293.78H674.064V286.4H672.064ZM673.064 294.78H673.244V292.78H673.064V294.78ZM672.244 293.78V317H674.244V293.78H672.244ZM673.244 316H665.684V318H673.244V316ZM674.238 300.933L673.458 293.673L671.47 293.887L672.25 301.147L674.238 300.933ZM673.428 294.047C674.104 291.604 675.226 289.825 676.744 288.624L675.504 287.056C673.582 288.575 672.264 290.756 671.5 293.513L673.428 294.047ZM676.744 288.624C678.271 287.417 680.107 286.8 682.304 286.8V284.8C679.702 284.8 677.417 285.543 675.504 287.056L676.744 288.624ZM682.304 286.8C683.127 286.8 683.544 286.885 683.698 286.954L684.51 285.126C683.944 284.875 683.161 284.8 682.304 284.8V286.8ZM683.104 286.04V293.18H685.104V286.04H683.104ZM684.475 292.252C684.104 292.103 683.677 292.06 683.264 292.06V294.06C683.571 294.06 683.704 294.097 683.733 294.108L684.475 292.252ZM683.374 292.066C682.966 292.021 682.487 292 681.944 292V294C682.442 294 682.842 294.019 683.154 294.054L683.374 292.066ZM681.944 292C678.901 292 676.437 292.664 674.74 294.173L676.068 295.667C677.251 294.616 679.147 294 681.944 294V292ZM674.74 294.173C673.004 295.715 672.244 298.086 672.244 301.04H674.244C674.244 298.394 674.924 296.685 676.068 295.667L674.74 294.173Z" fill="#1F9BEE" fill-opacity="0.51" mask="url(#path-4-outside-1_13_3)"/>
</svg>
