<svg width="804" height="383" viewBox="0 0 804 383" fill="none" xmlns="http://www.w3.org/2000/svg">
<circle cx="191.5" cy="191.5" r="191.5" fill="#1F9BEE"/>
<path d="M64.45 257V138H103.65C116.133 138 125.467 141.15 131.65 147.45C137.95 153.75 141.1 162.15 141.1 172.65V181.925C141.1 192.425 137.95 200.883 131.65 207.3C125.467 213.6 116.133 216.75 103.65 216.75H85.45V257H64.45ZM103.65 158.125H85.45V196.625H103.65C108.783 196.625 112.692 195.342 115.375 192.775C118.175 190.208 119.575 186.592 119.575 181.925V172.65C119.575 168.1 118.175 164.542 115.375 161.975C112.692 159.408 108.783 158.125 103.65 158.125ZM233.888 236.875V257H164.938V138H232.138V158.125H185.938V186.65H226.888V206.775H185.938V236.875H233.888ZM244.587 158.125V138H332.087V158.125H298.837V257H277.837V158.125H244.587Z" fill="white"/>
<path d="M418.475 151.475H397.3V130.65H418.475V151.475ZM417.95 257H397.825V168.275H417.95V257ZM434.127 158.125V138H521.627V158.125H488.377V257H467.377V158.125H434.127ZM558.441 151.475H537.266V130.65H558.441V151.475ZM557.916 257H537.791V168.275H557.916V257ZM672.442 184.9V209.925C672.442 225.092 668.651 237.05 661.067 245.8C653.484 254.433 642.401 258.75 627.817 258.75C613.117 258.75 601.976 254.433 594.392 245.8C586.926 237.05 583.192 225.092 583.192 209.925V184.9C583.192 169.733 586.926 157.833 594.392 149.2C601.976 140.567 613.117 136.25 627.817 136.25C642.401 136.25 653.484 140.567 661.067 149.2C668.651 157.833 672.442 169.733 672.442 184.9ZM650.917 184.9C650.917 175.333 649.051 168.158 645.317 163.375C641.584 158.475 635.751 156.025 627.817 156.025C619.884 156.025 614.051 158.475 610.317 163.375C606.584 168.158 604.717 175.333 604.717 184.9V209.925C604.717 219.492 606.584 226.725 610.317 231.625C614.051 236.525 619.884 238.975 627.817 238.975C635.751 238.975 641.584 236.525 645.317 231.625C649.051 226.725 650.917 219.492 650.917 209.925V184.9ZM700.206 257V138H719.456C728.673 150.017 737.423 162.733 745.706 176.15C753.989 189.45 761.514 203.158 768.281 217.275L766.706 181.75V138H786.831V257H767.581C760.114 242.3 752.356 227.542 744.306 212.725C736.373 197.792 727.914 183.733 718.931 170.55L720.331 211.5V257H700.206Z" fill="#1F9BEE"/>
<mask id="path-4-outside-1_12_14" maskUnits="userSpaceOnUse" x="384" y="276" width="224" height="49" fill="black">
<rect fill="white" x="384" y="276" width="224" height="49"/>
<path d="M385.976 313V278.44H395.672L406.232 311.752H402.824L413.384 278.44H423.128V313H416.984V280.504H417.992L407.72 313H401.048L390.872 280.792H391.832V313H385.976ZM444.605 313C444.445 312.36 444.317 311.656 444.221 310.888C444.157 310.12 444.125 309.192 444.125 308.104H443.933V296.488C443.933 295.208 443.565 294.248 442.829 293.608C442.125 292.936 441.037 292.6 439.565 292.6C438.125 292.6 436.973 292.872 436.109 293.416C435.277 293.928 434.765 294.68 434.573 295.672H428.765C429.021 293.4 430.109 291.56 432.029 290.152C433.949 288.744 436.525 288.04 439.757 288.04C443.117 288.04 445.661 288.808 447.389 290.344C449.117 291.848 449.981 294.072 449.981 297.016V308.104C449.981 308.872 450.029 309.656 450.125 310.456C450.253 311.256 450.429 312.104 450.653 313H444.605ZM436.109 313.48C433.645 313.48 431.677 312.872 430.205 311.656C428.765 310.408 428.045 308.744 428.045 306.664C428.045 304.424 428.861 302.648 430.493 301.336C432.125 300.024 434.429 299.144 437.405 298.696L445.037 297.544V301.384L438.413 302.392C436.973 302.616 435.885 303.016 435.149 303.592C434.445 304.168 434.093 304.968 434.093 305.992C434.093 306.92 434.429 307.64 435.101 308.152C435.773 308.632 436.701 308.872 437.885 308.872C439.613 308.872 441.053 308.44 442.205 307.576C443.357 306.712 443.933 305.656 443.933 304.408L444.605 308.104C443.965 309.864 442.909 311.208 441.437 312.136C439.997 313.032 438.221 313.48 436.109 313.48ZM456.107 313V288.52H462.011V294.28H462.155V313H456.107ZM473.291 313V297.544C473.291 296.04 472.907 294.904 472.139 294.136C471.371 293.368 470.251 292.984 468.779 292.984C467.499 292.984 466.347 293.272 465.323 293.848C464.331 294.424 463.547 295.224 462.971 296.248C462.427 297.272 462.155 298.456 462.155 299.8L461.531 293.944C462.363 292.152 463.579 290.728 465.179 289.672C466.779 288.584 468.699 288.04 470.939 288.04C473.595 288.04 475.659 288.792 477.131 290.296C478.635 291.8 479.387 293.8 479.387 296.296V313H473.291ZM500.293 313C500.133 312.36 500.005 311.656 499.909 310.888C499.845 310.12 499.813 309.192 499.813 308.104H499.621V296.488C499.621 295.208 499.253 294.248 498.517 293.608C497.813 292.936 496.725 292.6 495.253 292.6C493.813 292.6 492.661 292.872 491.797 293.416C490.965 293.928 490.453 294.68 490.261 295.672H484.453C484.709 293.4 485.797 291.56 487.717 290.152C489.637 288.744 492.213 288.04 495.445 288.04C498.805 288.04 501.349 288.808 503.077 290.344C504.805 291.848 505.669 294.072 505.669 297.016V308.104C505.669 308.872 505.717 309.656 505.812 310.456C505.941 311.256 506.117 312.104 506.341 313H500.293ZM491.797 313.48C489.333 313.48 487.365 312.872 485.893 311.656C484.453 310.408 483.733 308.744 483.733 306.664C483.733 304.424 484.549 302.648 486.181 301.336C487.813 300.024 490.117 299.144 493.093 298.696L500.725 297.544V301.384L494.101 302.392C492.661 302.616 491.573 303.016 490.837 303.592C490.133 304.168 489.781 304.968 489.781 305.992C489.781 306.92 490.117 307.64 490.789 308.152C491.461 308.632 492.389 308.872 493.573 308.872C495.301 308.872 496.741 308.44 497.893 307.576C499.045 306.712 499.621 305.656 499.621 304.408L500.293 308.104C499.653 309.864 498.597 311.208 497.125 312.136C495.685 313.032 493.909 313.48 491.797 313.48ZM522.171 323.32C518.939 323.32 516.283 322.616 514.203 321.208C512.155 319.8 510.939 317.896 510.555 315.496H516.315C516.603 316.328 517.227 316.968 518.187 317.416C519.179 317.896 520.459 318.136 522.027 318.136C524.299 318.136 525.979 317.624 527.067 316.6C528.155 315.608 528.699 314.088 528.699 312.04V306.76L529.131 306.856C528.747 308.648 527.771 310.088 526.203 311.176C524.635 312.232 522.715 312.76 520.443 312.76C518.267 312.76 516.363 312.248 514.731 311.224C513.131 310.2 511.883 308.776 510.987 306.952C510.091 305.096 509.643 302.936 509.643 300.472C509.643 297.976 510.107 295.8 511.035 293.944C511.963 292.088 513.259 290.648 514.923 289.624C516.619 288.568 518.587 288.04 520.827 288.04C523.131 288.04 525.019 288.6 526.491 289.72C527.995 290.808 528.923 292.328 529.275 294.28L528.891 294.328V288.52H534.795V311.992C534.795 315.48 533.659 318.232 531.387 320.248C529.147 322.296 526.075 323.32 522.171 323.32ZM522.411 307.96C524.363 307.96 525.915 307.304 527.067 305.992C528.251 304.648 528.843 302.776 528.843 300.376C528.843 297.976 528.251 296.12 527.067 294.808C525.883 293.496 524.315 292.84 522.363 292.84C520.443 292.84 518.891 293.512 517.707 294.856C516.523 296.168 515.931 298.024 515.931 300.424C515.931 302.824 516.523 304.68 517.707 305.992C518.891 307.304 520.459 307.96 522.411 307.96ZM541.232 313V288.52H547.28V313H541.232ZM540.944 284.488V277.816H547.52V284.488H540.944ZM553.7 313V288.52H559.604V294.28H559.748V313H553.7ZM570.884 313V297.544C570.884 296.04 570.5 294.904 569.732 294.136C568.964 293.368 567.844 292.984 566.372 292.984C565.092 292.984 563.94 293.272 562.916 293.848C561.924 294.424 561.14 295.224 560.564 296.248C560.02 297.272 559.748 298.456 559.748 299.8L559.124 293.944C559.956 292.152 561.172 290.728 562.772 289.672C564.372 288.584 566.292 288.04 568.532 288.04C571.188 288.04 573.252 288.792 574.724 290.296C576.228 291.8 576.98 293.8 576.98 296.296V313H570.884ZM593.796 323.32C590.564 323.32 587.908 322.616 585.828 321.208C583.78 319.8 582.564 317.896 582.18 315.496H587.94C588.228 316.328 588.852 316.968 589.812 317.416C590.804 317.896 592.084 318.136 593.652 318.136C595.924 318.136 597.604 317.624 598.692 316.6C599.78 315.608 600.324 314.088 600.324 312.04V306.76L600.756 306.856C600.372 308.648 599.396 310.088 597.828 311.176C596.26 312.232 594.34 312.76 592.068 312.76C589.892 312.76 587.988 312.248 586.356 311.224C584.756 310.2 583.508 308.776 582.612 306.952C581.716 305.096 581.268 302.936 581.268 300.472C581.268 297.976 581.732 295.8 582.66 293.944C583.588 292.088 584.884 290.648 586.548 289.624C588.244 288.568 590.212 288.04 592.452 288.04C594.756 288.04 596.644 288.6 598.116 289.72C599.62 290.808 600.548 292.328 600.9 294.28L600.516 294.328V288.52H606.42V311.992C606.42 315.48 605.284 318.232 603.012 320.248C600.772 322.296 597.7 323.32 593.796 323.32ZM594.036 307.96C595.988 307.96 597.54 307.304 598.692 305.992C599.876 304.648 600.468 302.776 600.468 300.376C600.468 297.976 599.876 296.12 598.692 294.808C597.508 293.496 595.94 292.84 593.988 292.84C592.068 292.84 590.516 293.512 589.332 294.856C588.148 296.168 587.556 298.024 587.556 300.424C587.556 302.824 588.148 304.68 589.332 305.992C590.516 307.304 592.084 307.96 594.036 307.96Z"/>
</mask>
<path d="M385.976 313V278.44H395.672L406.232 311.752H402.824L413.384 278.44H423.128V313H416.984V280.504H417.992L407.72 313H401.048L390.872 280.792H391.832V313H385.976ZM444.605 313C444.445 312.36 444.317 311.656 444.221 310.888C444.157 310.12 444.125 309.192 444.125 308.104H443.933V296.488C443.933 295.208 443.565 294.248 442.829 293.608C442.125 292.936 441.037 292.6 439.565 292.6C438.125 292.6 436.973 292.872 436.109 293.416C435.277 293.928 434.765 294.68 434.573 295.672H428.765C429.021 293.4 430.109 291.56 432.029 290.152C433.949 288.744 436.525 288.04 439.757 288.04C443.117 288.04 445.661 288.808 447.389 290.344C449.117 291.848 449.981 294.072 449.981 297.016V308.104C449.981 308.872 450.029 309.656 450.125 310.456C450.253 311.256 450.429 312.104 450.653 313H444.605ZM436.109 313.48C433.645 313.48 431.677 312.872 430.205 311.656C428.765 310.408 428.045 308.744 428.045 306.664C428.045 304.424 428.861 302.648 430.493 301.336C432.125 300.024 434.429 299.144 437.405 298.696L445.037 297.544V301.384L438.413 302.392C436.973 302.616 435.885 303.016 435.149 303.592C434.445 304.168 434.093 304.968 434.093 305.992C434.093 306.92 434.429 307.64 435.101 308.152C435.773 308.632 436.701 308.872 437.885 308.872C439.613 308.872 441.053 308.44 442.205 307.576C443.357 306.712 443.933 305.656 443.933 304.408L444.605 308.104C443.965 309.864 442.909 311.208 441.437 312.136C439.997 313.032 438.221 313.48 436.109 313.48ZM456.107 313V288.52H462.011V294.28H462.155V313H456.107ZM473.291 313V297.544C473.291 296.04 472.907 294.904 472.139 294.136C471.371 293.368 470.251 292.984 468.779 292.984C467.499 292.984 466.347 293.272 465.323 293.848C464.331 294.424 463.547 295.224 462.971 296.248C462.427 297.272 462.155 298.456 462.155 299.8L461.531 293.944C462.363 292.152 463.579 290.728 465.179 289.672C466.779 288.584 468.699 288.04 470.939 288.04C473.595 288.04 475.659 288.792 477.131 290.296C478.635 291.8 479.387 293.8 479.387 296.296V313H473.291ZM500.293 313C500.133 312.36 500.005 311.656 499.909 310.888C499.845 310.12 499.813 309.192 499.813 308.104H499.621V296.488C499.621 295.208 499.253 294.248 498.517 293.608C497.813 292.936 496.725 292.6 495.253 292.6C493.813 292.6 492.661 292.872 491.797 293.416C490.965 293.928 490.453 294.68 490.261 295.672H484.453C484.709 293.4 485.797 291.56 487.717 290.152C489.637 288.744 492.213 288.04 495.445 288.04C498.805 288.04 501.349 288.808 503.077 290.344C504.805 291.848 505.669 294.072 505.669 297.016V308.104C505.669 308.872 505.717 309.656 505.812 310.456C505.941 311.256 506.117 312.104 506.341 313H500.293ZM491.797 313.48C489.333 313.48 487.365 312.872 485.893 311.656C484.453 310.408 483.733 308.744 483.733 306.664C483.733 304.424 484.549 302.648 486.181 301.336C487.813 300.024 490.117 299.144 493.093 298.696L500.725 297.544V301.384L494.101 302.392C492.661 302.616 491.573 303.016 490.837 303.592C490.133 304.168 489.781 304.968 489.781 305.992C489.781 306.92 490.117 307.64 490.789 308.152C491.461 308.632 492.389 308.872 493.573 308.872C495.301 308.872 496.741 308.44 497.893 307.576C499.045 306.712 499.621 305.656 499.621 304.408L500.293 308.104C499.653 309.864 498.597 311.208 497.125 312.136C495.685 313.032 493.909 313.48 491.797 313.48ZM522.171 323.32C518.939 323.32 516.283 322.616 514.203 321.208C512.155 319.8 510.939 317.896 510.555 315.496H516.315C516.603 316.328 517.227 316.968 518.187 317.416C519.179 317.896 520.459 318.136 522.027 318.136C524.299 318.136 525.979 317.624 527.067 316.6C528.155 315.608 528.699 314.088 528.699 312.04V306.76L529.131 306.856C528.747 308.648 527.771 310.088 526.203 311.176C524.635 312.232 522.715 312.76 520.443 312.76C518.267 312.76 516.363 312.248 514.731 311.224C513.131 310.2 511.883 308.776 510.987 306.952C510.091 305.096 509.643 302.936 509.643 300.472C509.643 297.976 510.107 295.8 511.035 293.944C511.963 292.088 513.259 290.648 514.923 289.624C516.619 288.568 518.587 288.04 520.827 288.04C523.131 288.04 525.019 288.6 526.491 289.72C527.995 290.808 528.923 292.328 529.275 294.28L528.891 294.328V288.52H534.795V311.992C534.795 315.48 533.659 318.232 531.387 320.248C529.147 322.296 526.075 323.32 522.171 323.32ZM522.411 307.96C524.363 307.96 525.915 307.304 527.067 305.992C528.251 304.648 528.843 302.776 528.843 300.376C528.843 297.976 528.251 296.12 527.067 294.808C525.883 293.496 524.315 292.84 522.363 292.84C520.443 292.84 518.891 293.512 517.707 294.856C516.523 296.168 515.931 298.024 515.931 300.424C515.931 302.824 516.523 304.68 517.707 305.992C518.891 307.304 520.459 307.96 522.411 307.96ZM541.232 313V288.52H547.28V313H541.232ZM540.944 284.488V277.816H547.52V284.488H540.944ZM553.7 313V288.52H559.604V294.28H559.748V313H553.7ZM570.884 313V297.544C570.884 296.04 570.5 294.904 569.732 294.136C568.964 293.368 567.844 292.984 566.372 292.984C565.092 292.984 563.94 293.272 562.916 293.848C561.924 294.424 561.14 295.224 560.564 296.248C560.02 297.272 559.748 298.456 559.748 299.8L559.124 293.944C559.956 292.152 561.172 290.728 562.772 289.672C564.372 288.584 566.292 288.04 568.532 288.04C571.188 288.04 573.252 288.792 574.724 290.296C576.228 291.8 576.98 293.8 576.98 296.296V313H570.884ZM593.796 323.32C590.564 323.32 587.908 322.616 585.828 321.208C583.78 319.8 582.564 317.896 582.18 315.496H587.94C588.228 316.328 588.852 316.968 589.812 317.416C590.804 317.896 592.084 318.136 593.652 318.136C595.924 318.136 597.604 317.624 598.692 316.6C599.78 315.608 600.324 314.088 600.324 312.04V306.76L600.756 306.856C600.372 308.648 599.396 310.088 597.828 311.176C596.26 312.232 594.34 312.76 592.068 312.76C589.892 312.76 587.988 312.248 586.356 311.224C584.756 310.2 583.508 308.776 582.612 306.952C581.716 305.096 581.268 302.936 581.268 300.472C581.268 297.976 581.732 295.8 582.66 293.944C583.588 292.088 584.884 290.648 586.548 289.624C588.244 288.568 590.212 288.04 592.452 288.04C594.756 288.04 596.644 288.6 598.116 289.72C599.62 290.808 600.548 292.328 600.9 294.28L600.516 294.328V288.52H606.42V311.992C606.42 315.48 605.284 318.232 603.012 320.248C600.772 322.296 597.7 323.32 593.796 323.32ZM594.036 307.96C595.988 307.96 597.54 307.304 598.692 305.992C599.876 304.648 600.468 302.776 600.468 300.376C600.468 297.976 599.876 296.12 598.692 294.808C597.508 293.496 595.94 292.84 593.988 292.84C592.068 292.84 590.516 293.512 589.332 294.856C588.148 296.168 587.556 298.024 587.556 300.424C587.556 302.824 588.148 304.68 589.332 305.992C590.516 307.304 592.084 307.96 594.036 307.96Z" fill="black"/>
<path d="M385.976 313H384.976V314H385.976V313ZM385.976 278.44V277.44H384.976V278.44H385.976ZM395.672 278.44L396.625 278.138L396.404 277.44H395.672V278.44ZM406.232 311.752V312.752H407.598L407.185 311.45L406.232 311.752ZM402.824 311.752L401.871 311.45L401.458 312.752H402.824V311.752ZM413.384 278.44V277.44H412.652L412.431 278.138L413.384 278.44ZM423.128 278.44H424.128V277.44H423.128V278.44ZM423.128 313V314H424.128V313H423.128ZM416.984 313H415.984V314H416.984V313ZM416.984 280.504V279.504H415.984V280.504H416.984ZM417.992 280.504L418.945 280.805L419.357 279.504H417.992V280.504ZM407.72 313V314H408.453L408.673 313.301L407.72 313ZM401.048 313L400.094 313.301L400.315 314H401.048V313ZM390.872 280.792V279.792H389.507L389.918 281.093L390.872 280.792ZM391.832 280.792H392.832V279.792H391.832V280.792ZM391.832 313V314H392.832V313H391.832ZM386.976 313V278.44H384.976V313H386.976ZM385.976 279.44H395.672V277.44H385.976V279.44ZM394.719 278.742L405.279 312.054L407.185 311.45L396.625 278.138L394.719 278.742ZM406.232 310.752H402.824V312.752H406.232V310.752ZM403.777 312.054L414.337 278.742L412.431 278.138L401.871 311.45L403.777 312.054ZM413.384 279.44H423.128V277.44H413.384V279.44ZM422.128 278.44V313H424.128V278.44H422.128ZM423.128 312H416.984V314H423.128V312ZM417.984 313V280.504H415.984V313H417.984ZM416.984 281.504H417.992V279.504H416.984V281.504ZM417.039 280.203L406.767 312.699L408.673 313.301L418.945 280.805L417.039 280.203ZM407.72 312H401.048V314H407.72V312ZM402.002 312.699L391.826 280.491L389.918 281.093L400.094 313.301L402.002 312.699ZM390.872 281.792H391.832V279.792H390.872V281.792ZM390.832 280.792V313H392.832V280.792H390.832ZM391.832 312H385.976V314H391.832V312ZM444.605 313L443.635 313.243L443.824 314H444.605V313ZM444.221 310.888L443.224 310.971L443.226 310.992L443.229 311.012L444.221 310.888ZM444.125 308.104H445.125V307.104H444.125V308.104ZM443.933 308.104H442.933V309.104H443.933V308.104ZM442.829 293.608L442.139 294.331L442.155 294.347L442.173 294.363L442.829 293.608ZM436.109 293.416L436.633 294.268L436.642 294.262L436.109 293.416ZM434.573 295.672V296.672H435.398L435.555 295.862L434.573 295.672ZM428.765 295.672L427.771 295.56L427.646 296.672H428.765V295.672ZM432.029 290.152L432.62 290.958L432.62 290.958L432.029 290.152ZM447.389 290.344L446.725 291.091L446.732 291.098L447.389 290.344ZM450.125 310.456L449.132 310.575L449.134 310.595L449.138 310.614L450.125 310.456ZM450.653 313V314H451.934L451.623 312.757L450.653 313ZM430.205 311.656L429.55 312.412L429.559 312.419L429.568 312.427L430.205 311.656ZM430.493 301.336L429.866 300.557L429.866 300.557L430.493 301.336ZM437.405 298.696L437.554 299.685L437.554 299.685L437.405 298.696ZM445.037 297.544H446.037V296.382L444.888 296.555L445.037 297.544ZM445.037 301.384L445.187 302.373L446.037 302.243V301.384H445.037ZM438.413 302.392L438.263 301.403L438.259 301.404L438.413 302.392ZM435.149 303.592L434.533 302.804L434.524 302.811L434.516 302.818L435.149 303.592ZM435.101 308.152L434.495 308.947L434.507 308.957L434.52 308.966L435.101 308.152ZM442.205 307.576L441.605 306.776L441.605 306.776L442.205 307.576ZM443.933 304.408L444.917 304.229L442.933 304.408H443.933ZM444.605 308.104L445.545 308.446L445.637 308.191L445.589 307.925L444.605 308.104ZM441.437 312.136L441.965 312.985L441.97 312.982L441.437 312.136ZM445.575 312.757C445.426 312.162 445.305 311.499 445.213 310.764L443.229 311.012C443.329 311.813 443.464 312.558 443.635 313.243L445.575 312.757ZM445.218 310.805C445.157 310.073 445.125 309.175 445.125 308.104H443.125C443.125 309.209 443.157 310.167 443.224 310.971L445.218 310.805ZM444.125 307.104H443.933V309.104H444.125V307.104ZM444.933 308.104V296.488H442.933V308.104H444.933ZM444.933 296.488C444.933 295.015 444.503 293.738 443.485 292.853L442.173 294.363C442.627 294.758 442.933 295.401 442.933 296.488H444.933ZM443.519 292.885C442.553 291.963 441.165 291.6 439.565 291.6V293.6C440.909 293.6 441.697 293.909 442.139 294.331L443.519 292.885ZM439.565 291.6C438.01 291.6 436.652 291.892 435.576 292.57L436.642 294.262C437.294 293.852 438.24 293.6 439.565 293.6V291.6ZM435.585 292.564C434.505 293.229 433.834 294.226 433.591 295.482L435.555 295.862C435.696 295.134 436.049 294.627 436.633 294.268L435.585 292.564ZM434.573 294.672H428.765V296.672H434.573V294.672ZM429.759 295.784C429.982 293.802 430.915 292.209 432.62 290.958L431.438 289.346C429.303 290.911 428.06 292.998 427.771 295.56L429.759 295.784ZM432.62 290.958C434.317 289.714 436.663 289.04 439.757 289.04V287.04C436.387 287.04 433.581 287.774 431.438 289.346L432.62 290.958ZM439.757 289.04C442.981 289.04 445.248 289.778 446.725 291.091L448.053 289.597C446.074 287.838 443.253 287.04 439.757 287.04V289.04ZM446.732 291.098C448.183 292.361 448.981 294.273 448.981 297.016H450.981C450.981 293.871 450.051 291.335 448.046 289.59L446.732 291.098ZM448.981 297.016V308.104H450.981V297.016H448.981ZM448.981 308.104C448.981 308.914 449.032 309.738 449.132 310.575L451.118 310.337C451.026 309.574 450.981 308.83 450.981 308.104H448.981ZM449.138 310.614C449.271 311.446 449.453 312.322 449.683 313.243L451.623 312.757C451.405 311.886 451.235 311.066 451.112 310.298L449.138 310.614ZM450.653 312H444.605V314H450.653V312ZM436.109 312.48C433.809 312.48 432.088 311.914 430.842 310.885L429.568 312.427C431.266 313.83 433.481 314.48 436.109 314.48V312.48ZM430.86 310.9C429.661 309.861 429.045 308.484 429.045 306.664H427.045C427.045 309.004 427.869 310.955 429.55 312.412L430.86 310.9ZM429.045 306.664C429.045 304.703 429.742 303.223 431.12 302.115L429.866 300.557C427.98 302.073 427.045 304.145 427.045 306.664H429.045ZM431.12 302.115C432.566 300.952 434.681 300.117 437.554 299.685L437.256 297.707C434.177 298.171 431.684 299.096 429.866 300.557L431.12 302.115ZM437.554 299.685L445.186 298.533L444.888 296.555L437.256 297.707L437.554 299.685ZM444.037 297.544V301.384H446.037V297.544H444.037ZM444.887 300.395L438.263 301.403L438.563 303.381L445.187 302.373L444.887 300.395ZM438.259 301.404C436.736 301.641 435.458 302.08 434.533 302.804L435.765 304.38C436.312 303.952 437.21 303.591 438.567 303.38L438.259 301.404ZM434.516 302.818C433.549 303.609 433.093 304.711 433.093 305.992H435.093C435.093 305.225 435.341 304.727 435.782 304.366L434.516 302.818ZM433.093 305.992C433.093 307.197 433.548 308.226 434.495 308.947L435.707 307.357C435.31 307.054 435.093 306.643 435.093 305.992H433.093ZM434.52 308.966C435.421 309.609 436.58 309.872 437.885 309.872V307.872C436.822 307.872 436.125 307.655 435.682 307.338L434.52 308.966ZM437.885 309.872C439.785 309.872 441.447 309.394 442.805 308.376L441.605 306.776C440.659 307.486 439.441 307.872 437.885 307.872V309.872ZM442.805 308.376C444.165 307.356 444.933 306.022 444.933 304.408H442.933C442.933 305.29 442.549 306.068 441.605 306.776L442.805 308.376ZM442.949 304.587L443.621 308.283L445.589 307.925L444.917 304.229L442.949 304.587ZM443.665 307.762C443.095 309.331 442.173 310.49 440.904 311.29L441.97 312.982C443.645 311.926 444.835 310.397 445.545 308.446L443.665 307.762ZM440.909 311.287C439.662 312.063 438.08 312.48 436.109 312.48V314.48C438.362 314.48 440.332 314.001 441.965 312.985L440.909 311.287ZM456.107 313H455.107V314H456.107V313ZM456.107 288.52V287.52H455.107V288.52H456.107ZM462.011 288.52H463.011V287.52H462.011V288.52ZM462.011 294.28H461.011V295.28H462.011V294.28ZM462.155 294.28H463.155V293.28H462.155V294.28ZM462.155 313V314H463.155V313H462.155ZM473.291 313H472.291V314H473.291V313ZM465.323 293.848L464.832 292.976L464.82 292.983L465.323 293.848ZM462.971 296.248L462.099 295.758L462.093 295.768L462.088 295.779L462.971 296.248ZM462.155 299.8L461.16 299.906L463.155 299.8H462.155ZM461.531 293.944L460.624 293.523L460.507 293.774L460.536 294.05L461.531 293.944ZM465.179 289.672L465.73 290.507L465.741 290.499L465.179 289.672ZM477.131 290.296L476.416 290.996L476.424 291.003L477.131 290.296ZM479.387 313V314H480.387V313H479.387ZM457.107 313V288.52H455.107V313H457.107ZM456.107 289.52H462.011V287.52H456.107V289.52ZM461.011 288.52V294.28H463.011V288.52H461.011ZM462.011 295.28H462.155V293.28H462.011V295.28ZM461.155 294.28V313H463.155V294.28H461.155ZM462.155 312H456.107V314H462.155V312ZM474.291 313V297.544H472.291V313H474.291ZM474.291 297.544C474.291 295.879 473.864 294.447 472.846 293.429L471.432 294.843C471.949 295.361 472.291 296.201 472.291 297.544H474.291ZM472.846 293.429C471.831 292.415 470.419 291.984 468.779 291.984V293.984C470.082 293.984 470.91 294.321 471.432 294.843L472.846 293.429ZM468.779 291.984C467.343 291.984 466.019 292.309 464.832 292.976L465.813 294.72C466.674 294.235 467.655 293.984 468.779 293.984V291.984ZM464.82 292.983C463.67 293.651 462.76 294.582 462.099 295.758L463.842 296.738C464.333 295.866 464.991 295.197 465.825 294.713L464.82 292.983ZM462.088 295.779C461.455 296.969 461.155 298.319 461.155 299.8H463.155C463.155 298.593 463.398 297.575 463.854 296.717L462.088 295.779ZM463.149 299.694L462.525 293.838L460.536 294.05L461.16 299.906L463.149 299.694ZM462.438 294.365C463.194 292.736 464.289 291.457 465.729 290.507L464.628 288.837C462.868 289.999 461.531 291.568 460.624 293.523L462.438 294.365ZM465.741 290.499C467.15 289.541 468.867 289.04 470.939 289.04V287.04C468.531 287.04 466.407 287.627 464.616 288.845L465.741 290.499ZM470.939 289.04C473.4 289.04 475.178 289.731 476.416 290.995L477.845 289.597C476.139 287.853 473.789 287.04 470.939 287.04V289.04ZM476.424 291.003C477.708 292.287 478.387 294.016 478.387 296.296H480.387C480.387 293.584 479.562 291.313 477.838 289.589L476.424 291.003ZM478.387 296.296V313H480.387V296.296H478.387ZM479.387 312H473.291V314H479.387V312ZM500.293 313L499.322 313.243L499.512 314H500.293V313ZM499.909 310.888L498.912 310.971L498.914 310.992L498.916 311.012L499.909 310.888ZM499.813 308.104H500.813V307.104H499.813V308.104ZM499.621 308.104H498.621V309.104H499.621V308.104ZM498.517 293.608L497.826 294.331L497.843 294.347L497.86 294.363L498.517 293.608ZM491.797 293.416L492.321 294.268L492.329 294.262L491.797 293.416ZM490.261 295.672V296.672H491.086L491.242 295.862L490.261 295.672ZM484.453 295.672L483.459 295.56L483.333 296.672H484.453V295.672ZM487.717 290.152L488.308 290.958L488.308 290.958L487.717 290.152ZM503.077 290.344L502.412 291.091L502.42 291.098L503.077 290.344ZM505.812 310.456L504.82 310.575L504.822 310.595L504.825 310.614L505.812 310.456ZM506.341 313V314H507.621L507.311 312.757L506.341 313ZM485.893 311.656L485.238 312.412L485.247 312.419L485.256 312.427L485.893 311.656ZM486.181 301.336L485.554 300.557L485.554 300.557L486.181 301.336ZM493.093 298.696L493.241 299.685L493.242 299.685L493.093 298.696ZM500.725 297.544H501.725V296.382L500.575 296.555L500.725 297.544ZM500.725 301.384L500.875 302.373L501.725 302.243V301.384H500.725ZM494.101 302.392L493.95 301.403L493.947 301.404L494.101 302.392ZM490.837 303.592L490.22 302.804L490.212 302.811L490.203 302.818L490.837 303.592ZM490.789 308.152L490.182 308.947L490.195 308.957L490.207 308.966L490.789 308.152ZM497.893 307.576L497.293 306.776L497.293 306.776L497.893 307.576ZM499.621 304.408L500.604 304.229L498.621 304.408H499.621ZM500.293 308.104L501.232 308.446L501.325 308.191L501.276 307.925L500.293 308.104ZM497.125 312.136L497.653 312.985L497.658 312.982L497.125 312.136ZM501.263 312.757C501.114 312.162 500.993 311.499 500.901 310.764L498.916 311.012C499.016 311.813 499.151 312.558 499.322 313.243L501.263 312.757ZM500.905 310.805C500.844 310.073 500.813 309.175 500.813 308.104H498.813C498.813 309.209 498.845 310.167 498.912 310.971L500.905 310.805ZM499.813 307.104H499.621V309.104H499.813V307.104ZM500.621 308.104V296.488H498.621V308.104H500.621ZM500.621 296.488C500.621 295.015 500.19 293.738 499.173 292.853L497.86 294.363C498.315 294.758 498.621 295.401 498.621 296.488H500.621ZM499.207 292.885C498.241 291.963 496.853 291.6 495.253 291.6V293.6C496.596 293.6 497.384 293.909 497.826 294.331L499.207 292.885ZM495.253 291.6C493.698 291.6 492.34 291.892 491.264 292.57L492.329 294.262C492.981 293.852 493.927 293.6 495.253 293.6V291.6ZM491.272 292.564C490.193 293.229 489.522 294.226 489.279 295.482L491.242 295.862C491.383 295.134 491.736 294.627 492.321 294.268L491.272 292.564ZM490.261 294.672H484.453V296.672H490.261V294.672ZM485.446 295.784C485.67 293.802 486.603 292.209 488.308 290.958L487.125 289.346C484.99 290.911 483.747 292.998 483.459 295.56L485.446 295.784ZM488.308 290.958C490.005 289.714 492.35 289.04 495.445 289.04V287.04C492.075 287.04 489.268 287.774 487.125 289.346L488.308 290.958ZM495.445 289.04C498.669 289.04 500.935 289.778 502.412 291.091L503.741 289.597C501.762 287.838 498.94 287.04 495.445 287.04V289.04ZM502.42 291.098C503.871 292.361 504.669 294.273 504.669 297.016H506.669C506.669 293.871 505.738 291.335 503.733 289.59L502.42 291.098ZM504.669 297.016V308.104H506.669V297.016H504.669ZM504.669 308.104C504.669 308.914 504.719 309.738 504.82 310.575L506.805 310.337C506.714 309.574 506.669 308.83 506.669 308.104H504.669ZM504.825 310.614C504.958 311.446 505.14 312.322 505.37 313.243L507.311 312.757C507.093 311.886 506.923 311.066 506.8 310.298L504.825 310.614ZM506.341 312H500.293V314H506.341V312ZM491.797 312.48C489.496 312.48 487.776 311.914 486.529 310.885L485.256 312.427C486.953 313.83 489.169 314.48 491.797 314.48V312.48ZM486.547 310.9C485.348 309.861 484.733 308.484 484.733 306.664H482.733C482.733 309.004 483.557 310.955 485.238 312.412L486.547 310.9ZM484.733 306.664C484.733 304.703 485.429 303.223 486.807 302.115L485.554 300.557C483.668 302.073 482.733 304.145 482.733 306.664H484.733ZM486.807 302.115C488.254 300.952 490.368 300.117 493.241 299.685L492.944 297.707C489.865 298.171 487.371 299.096 485.554 300.557L486.807 302.115ZM493.242 299.685L500.874 298.533L500.575 296.555L492.943 297.707L493.242 299.685ZM499.725 297.544V301.384H501.725V297.544H499.725ZM500.574 300.395L493.95 301.403L494.251 303.381L500.875 302.373L500.574 300.395ZM493.947 301.404C492.424 301.641 491.146 302.08 490.22 302.804L491.453 304.38C491.999 303.952 492.897 303.591 494.254 303.38L493.947 301.404ZM490.203 302.818C489.236 303.609 488.781 304.711 488.781 305.992H490.781C490.781 305.225 491.029 304.727 491.47 304.366L490.203 302.818ZM488.781 305.992C488.781 307.197 489.235 308.226 490.182 308.947L491.395 307.357C490.998 307.054 490.781 306.643 490.781 305.992H488.781ZM490.207 308.966C491.108 309.609 492.267 309.872 493.573 309.872V307.872C492.51 307.872 491.813 307.655 491.37 307.338L490.207 308.966ZM493.573 309.872C495.472 309.872 497.135 309.394 498.493 308.376L497.293 306.776C496.346 307.486 495.129 307.872 493.573 307.872V309.872ZM498.493 308.376C499.852 307.356 500.621 306.022 500.621 304.408H498.621C498.621 305.29 498.237 306.068 497.293 306.776L498.493 308.376ZM498.637 304.587L499.309 308.283L501.276 307.925L500.604 304.229L498.637 304.587ZM499.353 307.762C498.782 309.331 497.861 310.49 496.591 311.29L497.658 312.982C499.332 311.926 500.523 310.397 501.232 308.446L499.353 307.762ZM496.596 311.287C495.349 312.063 493.767 312.48 491.797 312.48V314.48C494.05 314.48 496.02 314.001 497.653 312.985L496.596 311.287ZM514.203 321.208L513.637 322.032L513.643 322.036L514.203 321.208ZM510.555 315.496V314.496H509.382L509.568 315.654L510.555 315.496ZM516.315 315.496L517.26 315.169L517.027 314.496H516.315V315.496ZM518.187 317.416L518.623 316.516L518.61 316.51L518.187 317.416ZM527.067 316.6L526.393 315.861L526.388 315.866L526.382 315.872L527.067 316.6ZM528.699 306.76L528.916 305.784L527.699 305.513V306.76H528.699ZM529.131 306.856L530.109 307.066L530.317 306.095L529.348 305.88L529.131 306.856ZM526.203 311.176L526.762 312.006L526.773 311.998L526.203 311.176ZM514.731 311.224L514.192 312.066L514.2 312.071L514.731 311.224ZM510.987 306.952L510.087 307.387L510.09 307.393L510.987 306.952ZM514.923 289.624L515.447 290.476L515.452 290.473L514.923 289.624ZM526.491 289.72L525.886 290.516L525.895 290.523L525.905 290.53L526.491 289.72ZM529.275 294.28L529.399 295.272L530.447 295.141L530.259 294.103L529.275 294.28ZM528.891 294.328H527.891V295.461L529.015 295.32L528.891 294.328ZM528.891 288.52V287.52H527.891V288.52H528.891ZM534.795 288.52H535.795V287.52H534.795V288.52ZM531.387 320.248L530.723 319.5L530.718 319.505L530.712 319.51L531.387 320.248ZM527.067 305.992L526.317 305.331L526.316 305.332L527.067 305.992ZM527.067 294.808L526.325 295.478L526.325 295.478L527.067 294.808ZM517.707 294.856L518.45 295.526L518.457 295.517L517.707 294.856ZM517.707 305.992L518.45 305.322L518.45 305.322L517.707 305.992ZM522.171 322.32C519.082 322.32 516.637 321.648 514.764 320.38L513.643 322.036C515.93 323.584 518.796 324.32 522.171 324.32V322.32ZM514.77 320.384C512.941 319.127 511.882 317.461 511.543 315.338L509.568 315.654C509.996 318.331 511.369 320.473 513.637 322.032L514.77 320.384ZM510.555 316.496H516.315V314.496H510.555V316.496ZM515.37 315.823C515.764 316.962 516.613 317.785 517.764 318.322L518.61 316.51C517.842 316.151 517.442 315.694 517.26 315.169L515.37 315.823ZM517.752 318.316C518.924 318.884 520.368 319.136 522.027 319.136V317.136C520.551 317.136 519.434 316.908 518.623 316.516L517.752 318.316ZM522.027 319.136C524.425 319.136 526.403 318.599 527.752 317.328L526.382 315.872C525.556 316.649 524.174 317.136 522.027 317.136V319.136ZM527.741 317.339C529.108 316.093 529.699 314.256 529.699 312.04H527.699C527.699 313.92 527.202 315.123 526.393 315.861L527.741 317.339ZM529.699 312.04V306.76H527.699V312.04H529.699ZM528.482 307.736L528.914 307.832L529.348 305.88L528.916 305.784L528.482 307.736ZM528.153 306.646C527.825 308.179 527.002 309.405 525.633 310.354L526.773 311.998C528.54 310.771 529.669 309.117 530.109 307.066L528.153 306.646ZM525.645 310.347C524.272 311.271 522.557 311.76 520.443 311.76V313.76C522.873 313.76 524.998 313.193 526.762 312.005L525.645 310.347ZM520.443 311.76C518.43 311.76 516.715 311.289 515.263 310.377L514.2 312.071C516.011 313.207 518.104 313.76 520.443 313.76V311.76ZM515.27 310.382C513.835 309.463 512.706 308.183 511.885 306.511L510.09 307.393C511.06 309.369 512.427 310.937 514.192 312.066L515.27 310.382ZM511.888 306.517C511.069 304.821 510.643 302.815 510.643 300.472H508.643C508.643 303.057 509.114 305.371 510.087 307.387L511.888 306.517ZM510.643 300.472C510.643 298.1 511.084 296.083 511.93 294.391L510.141 293.497C509.131 295.517 508.643 297.852 508.643 300.472H510.643ZM511.93 294.391C512.78 292.691 513.952 291.396 515.447 290.476L514.399 288.772C512.566 289.9 511.147 291.485 510.141 293.497L511.93 294.391ZM515.452 290.473C516.97 289.527 518.751 289.04 520.827 289.04V287.04C518.424 287.04 516.268 287.609 514.395 288.775L515.452 290.473ZM520.827 289.04C522.967 289.04 524.627 289.558 525.886 290.516L527.097 288.924C525.412 287.642 523.295 287.04 520.827 287.04V289.04ZM525.905 290.53C527.184 291.456 527.981 292.741 528.291 294.457L530.259 294.103C529.865 291.915 528.806 290.16 527.077 288.91L525.905 290.53ZM529.151 293.288L528.767 293.336L529.015 295.32L529.399 295.272L529.151 293.288ZM529.891 294.328V288.52H527.891V294.328H529.891ZM528.891 289.52H534.795V287.52H528.891V289.52ZM533.795 288.52V311.992H535.795V288.52H533.795ZM533.795 311.992C533.795 315.241 532.749 317.703 530.723 319.5L532.051 320.996C534.569 318.761 535.795 315.719 535.795 311.992H533.795ZM530.712 319.51C528.705 321.346 525.899 322.32 522.171 322.32V324.32C526.251 324.32 529.59 323.246 532.062 320.986L530.712 319.51ZM522.411 308.96C524.613 308.96 526.453 308.207 527.819 306.652L526.316 305.332C525.377 306.401 524.113 306.96 522.411 306.96V308.96ZM527.817 306.653C529.21 305.072 529.843 302.936 529.843 300.376H527.843C527.843 302.616 527.292 304.224 526.317 305.331L527.817 306.653ZM529.843 300.376C529.843 297.818 529.211 295.691 527.81 294.138L526.325 295.478C527.291 296.549 527.843 298.134 527.843 300.376H529.843ZM527.81 294.138C526.415 292.593 524.565 291.84 522.363 291.84V293.84C524.065 293.84 525.351 294.399 526.325 295.478L527.81 294.138ZM522.363 291.84C520.179 291.84 518.346 292.619 516.957 294.195L518.457 295.517C519.437 294.405 520.707 293.84 522.363 293.84V291.84ZM516.965 294.186C515.563 295.739 514.931 297.866 514.931 300.424H516.931C516.931 298.182 517.483 296.597 518.45 295.526L516.965 294.186ZM514.931 300.424C514.931 302.982 515.563 305.109 516.965 306.662L518.45 305.322C517.483 304.251 516.931 302.666 516.931 300.424H514.931ZM516.965 306.662C518.359 308.207 520.209 308.96 522.411 308.96V306.96C520.709 306.96 519.423 306.401 518.45 305.322L516.965 306.662ZM541.232 313H540.232V314H541.232V313ZM541.232 288.52V287.52H540.232V288.52H541.232ZM547.28 288.52H548.28V287.52H547.28V288.52ZM547.28 313V314H548.28V313H547.28ZM540.944 284.488H539.944V285.488H540.944V284.488ZM540.944 277.816V276.816H539.944V277.816H540.944ZM547.52 277.816H548.52V276.816H547.52V277.816ZM547.52 284.488V285.488H548.52V284.488H547.52ZM542.232 313V288.52H540.232V313H542.232ZM541.232 289.52H547.28V287.52H541.232V289.52ZM546.28 288.52V313H548.28V288.52H546.28ZM547.28 312H541.232V314H547.28V312ZM541.944 284.488V277.816H539.944V284.488H541.944ZM540.944 278.816H547.52V276.816H540.944V278.816ZM546.52 277.816V284.488H548.52V277.816H546.52ZM547.52 283.488H540.944V285.488H547.52V283.488ZM553.7 313H552.7V314H553.7V313ZM553.7 288.52V287.52H552.7V288.52H553.7ZM559.604 288.52H560.604V287.52H559.604V288.52ZM559.604 294.28H558.604V295.28H559.604V294.28ZM559.748 294.28H560.748V293.28H559.748V294.28ZM559.748 313V314H560.748V313H559.748ZM570.884 313H569.884V314H570.884V313ZM562.916 293.848L562.426 292.976L562.414 292.983L562.916 293.848ZM560.564 296.248L559.693 295.758L559.687 295.768L559.681 295.779L560.564 296.248ZM559.748 299.8L558.754 299.906L560.748 299.8H559.748ZM559.124 293.944L558.217 293.523L558.101 293.774L558.13 294.05L559.124 293.944ZM562.772 289.672L563.323 290.507L563.335 290.499L562.772 289.672ZM574.724 290.296L574.01 290.996L574.017 291.003L574.724 290.296ZM576.98 313V314H577.98V313H576.98ZM554.7 313V288.52H552.7V313H554.7ZM553.7 289.52H559.604V287.52H553.7V289.52ZM558.604 288.52V294.28H560.604V288.52H558.604ZM559.604 295.28H559.748V293.28H559.604V295.28ZM558.748 294.28V313H560.748V294.28H558.748ZM559.748 312H553.7V314H559.748V312ZM571.884 313V297.544H569.884V313H571.884ZM571.884 297.544C571.884 295.879 571.458 294.447 570.439 293.429L569.025 294.843C569.543 295.361 569.884 296.201 569.884 297.544H571.884ZM570.439 293.429C569.425 292.415 568.013 291.984 566.372 291.984V293.984C567.676 293.984 568.504 294.321 569.025 294.843L570.439 293.429ZM566.372 291.984C564.936 291.984 563.613 292.309 562.426 292.976L563.407 294.72C564.268 294.235 565.248 293.984 566.372 293.984V291.984ZM562.414 292.983C561.264 293.651 560.354 294.582 559.693 295.758L561.436 296.738C561.927 295.866 562.585 295.197 563.419 294.713L562.414 292.983ZM559.681 295.779C559.049 296.969 558.748 298.319 558.748 299.8H560.748C560.748 298.593 560.992 297.575 561.447 296.717L559.681 295.779ZM560.743 299.694L560.119 293.838L558.13 294.05L558.754 299.906L560.743 299.694ZM560.031 294.365C560.788 292.736 561.883 291.457 563.323 290.507L562.222 288.837C560.462 289.999 559.125 291.568 558.217 293.523L560.031 294.365ZM563.335 290.499C564.744 289.541 566.46 289.04 568.532 289.04V287.04C566.124 287.04 564.001 287.627 562.21 288.845L563.335 290.499ZM568.532 289.04C570.994 289.04 572.772 289.731 574.01 290.995L575.439 289.597C573.733 287.853 571.383 287.04 568.532 287.04V289.04ZM574.017 291.003C575.301 292.287 575.98 294.016 575.98 296.296H577.98C577.98 293.584 577.155 291.313 575.431 289.589L574.017 291.003ZM575.98 296.296V313H577.98V296.296H575.98ZM576.98 312H570.884V314H576.98V312ZM585.828 321.208L585.262 322.032L585.268 322.036L585.828 321.208ZM582.18 315.496V314.496H581.007L581.193 315.654L582.18 315.496ZM587.94 315.496L588.885 315.169L588.652 314.496H587.94V315.496ZM589.812 317.416L590.248 316.516L590.235 316.51L589.812 317.416ZM598.692 316.6L598.018 315.861L598.013 315.866L598.007 315.872L598.692 316.6ZM600.324 306.76L600.541 305.784L599.324 305.513V306.76H600.324ZM600.756 306.856L601.734 307.066L601.942 306.095L600.973 305.88L600.756 306.856ZM597.828 311.176L598.387 312.006L598.398 311.998L597.828 311.176ZM586.356 311.224L585.817 312.066L585.825 312.071L586.356 311.224ZM582.612 306.952L581.712 307.387L581.715 307.393L582.612 306.952ZM586.548 289.624L587.072 290.476L587.077 290.473L586.548 289.624ZM598.116 289.72L597.511 290.516L597.52 290.523L597.53 290.53L598.116 289.72ZM600.9 294.28L601.024 295.272L602.072 295.141L601.884 294.103L600.9 294.28ZM600.516 294.328H599.516V295.461L600.64 295.32L600.516 294.328ZM600.516 288.52V287.52H599.516V288.52H600.516ZM606.42 288.52H607.42V287.52H606.42V288.52ZM603.012 320.248L602.348 319.5L602.343 319.505L602.337 319.51L603.012 320.248ZM598.692 305.992L597.942 305.331L597.941 305.332L598.692 305.992ZM598.692 294.808L597.95 295.478L597.95 295.478L598.692 294.808ZM589.332 294.856L590.075 295.526L590.082 295.517L589.332 294.856ZM589.332 305.992L590.075 305.322L590.075 305.322L589.332 305.992ZM593.796 322.32C590.707 322.32 588.262 321.648 586.389 320.38L585.268 322.036C587.555 323.584 590.421 324.32 593.796 324.32V322.32ZM586.395 320.384C584.566 319.127 583.507 317.461 583.168 315.338L581.193 315.654C581.621 318.331 582.994 320.473 585.262 322.032L586.395 320.384ZM582.18 316.496H587.94V314.496H582.18V316.496ZM586.995 315.823C587.389 316.962 588.238 317.785 589.389 318.322L590.235 316.51C589.467 316.151 589.067 315.694 588.885 315.169L586.995 315.823ZM589.377 318.316C590.549 318.884 591.993 319.136 593.652 319.136V317.136C592.176 317.136 591.059 316.908 590.248 316.516L589.377 318.316ZM593.652 319.136C596.05 319.136 598.028 318.599 599.377 317.328L598.007 315.872C597.181 316.649 595.799 317.136 593.652 317.136V319.136ZM599.366 317.339C600.733 316.093 601.324 314.256 601.324 312.04H599.324C599.324 313.92 598.827 315.123 598.018 315.861L599.366 317.339ZM601.324 312.04V306.76H599.324V312.04H601.324ZM600.107 307.736L600.539 307.832L600.973 305.88L600.541 305.784L600.107 307.736ZM599.778 306.646C599.45 308.179 598.627 309.405 597.258 310.354L598.398 311.998C600.165 310.771 601.294 309.117 601.734 307.066L599.778 306.646ZM597.27 310.347C595.897 311.271 594.182 311.76 592.068 311.76V313.76C594.498 313.76 596.623 313.193 598.387 312.005L597.27 310.347ZM592.068 311.76C590.055 311.76 588.34 311.289 586.888 310.377L585.825 312.071C587.636 313.207 589.729 313.76 592.068 313.76V311.76ZM586.895 310.382C585.46 309.463 584.331 308.183 583.51 306.511L581.715 307.393C582.685 309.369 584.052 310.937 585.817 312.066L586.895 310.382ZM583.513 306.517C582.694 304.821 582.268 302.815 582.268 300.472H580.268C580.268 303.057 580.739 305.371 581.712 307.387L583.513 306.517ZM582.268 300.472C582.268 298.1 582.709 296.083 583.555 294.391L581.766 293.497C580.756 295.517 580.268 297.852 580.268 300.472H582.268ZM583.555 294.391C584.405 292.691 585.577 291.396 587.072 290.476L586.024 288.772C584.191 289.9 582.772 291.485 581.766 293.497L583.555 294.391ZM587.077 290.473C588.595 289.527 590.376 289.04 592.452 289.04V287.04C590.049 287.04 587.893 287.609 586.02 288.775L587.077 290.473ZM592.452 289.04C594.592 289.04 596.252 289.558 597.511 290.516L598.722 288.924C597.037 287.642 594.92 287.04 592.452 287.04V289.04ZM597.53 290.53C598.809 291.456 599.606 292.741 599.916 294.457L601.884 294.103C601.49 291.915 600.431 290.16 598.702 288.91L597.53 290.53ZM600.776 293.288L600.392 293.336L600.64 295.32L601.024 295.272L600.776 293.288ZM601.516 294.328V288.52H599.516V294.328H601.516ZM600.516 289.52H606.42V287.52H600.516V289.52ZM605.42 288.52V311.992H607.42V288.52H605.42ZM605.42 311.992C605.42 315.241 604.374 317.703 602.348 319.5L603.676 320.996C606.194 318.761 607.42 315.719 607.42 311.992H605.42ZM602.337 319.51C600.33 321.346 597.524 322.32 593.796 322.32V324.32C597.876 324.32 601.215 323.246 603.687 320.986L602.337 319.51ZM594.036 308.96C596.238 308.96 598.078 308.207 599.444 306.652L597.941 305.332C597.002 306.401 595.738 306.96 594.036 306.96V308.96ZM599.442 306.653C600.835 305.072 601.468 302.936 601.468 300.376H599.468C599.468 302.616 598.917 304.224 597.942 305.331L599.442 306.653ZM601.468 300.376C601.468 297.818 600.836 295.691 599.435 294.138L597.95 295.478C598.916 296.549 599.468 298.134 599.468 300.376H601.468ZM599.435 294.138C598.04 292.593 596.19 291.84 593.988 291.84V293.84C595.69 293.84 596.976 294.399 597.95 295.478L599.435 294.138ZM593.988 291.84C591.804 291.84 589.971 292.619 588.582 294.195L590.082 295.517C591.062 294.405 592.332 293.84 593.988 293.84V291.84ZM588.59 294.186C587.188 295.739 586.556 297.866 586.556 300.424H588.556C588.556 298.182 589.108 296.597 590.075 295.526L588.59 294.186ZM586.556 300.424C586.556 302.982 587.188 305.109 588.59 306.662L590.075 305.322C589.108 304.251 588.556 302.666 588.556 300.424H586.556ZM588.59 306.662C589.984 308.207 591.834 308.96 594.036 308.96V306.96C592.334 306.96 591.048 306.401 590.075 305.322L588.59 306.662Z" fill="#1F9BEE" fill-opacity="0.51" mask="url(#path-4-outside-1_12_14)"/>
<mask id="path-6-outside-2_12_14" maskUnits="userSpaceOnUse" x="622" y="276" width="169" height="48" fill="black">
<rect fill="white" x="622" y="276" width="169" height="48"/>
<path d="M638.368 313.432C634.016 313.432 630.544 312.44 627.952 310.456C625.392 308.44 623.888 305.608 623.44 301.96H629.44C629.728 304.072 630.672 305.72 632.272 306.904C633.872 308.056 635.968 308.632 638.56 308.632C640.704 308.632 642.336 308.248 643.456 307.48C644.608 306.68 645.184 305.576 645.184 304.168C645.184 302.92 644.832 301.912 644.128 301.144C643.424 300.376 642.24 299.752 640.576 299.272L634.336 297.4C631.168 296.44 628.832 295.176 627.328 293.608C625.856 292.04 625.12 290.072 625.12 287.704C625.12 285.72 625.632 283.992 626.656 282.52C627.68 281.048 629.12 279.912 630.976 279.112C632.864 278.312 635.056 277.912 637.552 277.912C641.392 277.912 644.448 278.856 646.72 280.744C649.024 282.6 650.336 285.128 650.656 288.328H644.656C644.304 286.408 643.504 285 642.256 284.104C641.008 283.176 639.328 282.712 637.216 282.712C635.36 282.712 633.888 283.08 632.8 283.816C631.712 284.552 631.168 285.56 631.168 286.84C631.168 287.896 631.488 288.792 632.128 289.528C632.8 290.264 634.032 290.904 635.824 291.448L642.16 293.368C645.328 294.296 647.632 295.56 649.072 297.16C650.512 298.76 651.232 300.792 651.232 303.256C651.232 306.52 650.096 309.032 647.824 310.792C645.584 312.552 642.432 313.432 638.368 313.432ZM657.315 322.84L663.651 308.632L664.755 306.808L671.667 288.52H678.099L663.459 322.84H657.315ZM662.739 312.76L652.803 288.52H659.379L667.683 310.504L662.739 312.76ZM690.217 313.48C686.825 313.48 684.121 312.776 682.105 311.368C680.089 309.928 678.985 307.944 678.793 305.416H684.313C684.473 306.664 685.065 307.608 686.089 308.248C687.113 308.888 688.489 309.208 690.217 309.208C691.785 309.208 692.953 308.968 693.721 308.488C694.521 307.976 694.921 307.256 694.921 306.328C694.921 305.656 694.697 305.112 694.249 304.696C693.801 304.248 692.953 303.88 691.705 303.592L687.769 302.68C685.081 302.104 683.081 301.208 681.769 299.992C680.489 298.744 679.849 297.192 679.849 295.336C679.849 293.064 680.713 291.288 682.441 290.008C684.201 288.696 686.617 288.04 689.689 288.04C692.729 288.04 695.161 288.696 696.985 290.008C698.841 291.288 699.865 293.064 700.057 295.336H694.537C694.377 294.344 693.865 293.592 693.001 293.08C692.169 292.568 691.017 292.312 689.545 292.312C688.169 292.312 687.129 292.536 686.425 292.984C685.721 293.4 685.369 294.024 685.369 294.856C685.369 295.496 685.641 296.04 686.185 296.488C686.729 296.904 687.641 297.272 688.921 297.592L693.145 298.552C695.545 299.096 697.353 300.04 698.569 301.384C699.817 302.728 700.441 304.312 700.441 306.136C700.441 308.472 699.545 310.28 697.753 311.56C695.961 312.84 693.449 313.48 690.217 313.48ZM715.521 313.48C712.513 313.48 710.289 312.776 708.849 311.368C707.441 309.928 706.737 307.784 706.737 304.936V282.952L712.833 280.696V305.08C712.833 306.264 713.153 307.144 713.793 307.72C714.433 308.296 715.441 308.584 716.817 308.584C717.361 308.584 717.841 308.552 718.257 308.488C718.705 308.392 719.121 308.28 719.505 308.152V312.856C719.121 313.048 718.577 313.192 717.873 313.288C717.169 313.416 716.385 313.48 715.521 313.48ZM702.033 293.272V288.52H719.505V293.272H702.033ZM734.271 313.48C731.679 313.48 729.407 312.936 727.455 311.848C725.535 310.76 724.031 309.256 722.943 307.336C721.887 305.416 721.359 303.208 721.359 300.712C721.359 298.216 721.887 296.024 722.943 294.136C724.031 292.216 725.535 290.728 727.455 289.672C729.375 288.584 731.615 288.04 734.174 288.04C736.607 288.04 738.719 288.552 740.511 289.576C742.303 290.568 743.695 291.976 744.687 293.8C745.679 295.624 746.175 297.752 746.175 300.184C746.175 300.632 746.159 301.048 746.127 301.432C746.095 301.816 746.047 302.2 745.983 302.584H725.103V298.36H741.327L740.079 299.512C740.079 297.208 739.551 295.48 738.495 294.328C737.439 293.176 735.967 292.6 734.079 292.6C732.031 292.6 730.399 293.304 729.183 294.712C727.999 296.12 727.407 298.152 727.407 300.808C727.407 303.432 727.999 305.448 729.183 306.856C730.399 308.232 732.111 308.92 734.319 308.92C735.599 308.92 736.719 308.68 737.679 308.2C738.639 307.72 739.343 306.984 739.791 305.992H745.503C744.703 308.296 743.343 310.12 741.423 311.464C739.535 312.808 737.151 313.48 734.271 313.48ZM750.7 313V288.52H756.604V294.28H756.748V313H750.7ZM767.164 313V297.208C767.164 295.768 766.796 294.712 766.06 294.04C765.356 293.336 764.348 292.984 763.036 292.984C761.884 292.984 760.828 293.256 759.868 293.8C758.908 294.344 758.14 295.112 757.564 296.104C757.02 297.096 756.748 298.248 756.748 299.56L756.124 293.944C756.956 292.152 758.156 290.728 759.724 289.672C761.292 288.584 763.116 288.04 765.196 288.04C767.692 288.04 769.66 288.76 771.1 290.2C772.54 291.608 773.26 293.432 773.26 295.672V313H767.164ZM783.628 313V297.208C783.628 295.768 783.276 294.712 782.572 294.04C781.868 293.336 780.86 292.984 779.548 292.984C778.364 292.984 777.292 293.256 776.332 293.8C775.372 294.344 774.62 295.112 774.076 296.104C773.532 297.096 773.26 298.248 773.26 299.56L772.204 293.944C773.004 292.152 774.22 290.728 775.852 289.672C777.484 288.584 779.372 288.04 781.516 288.04C784.076 288.04 786.076 288.776 787.516 290.248C788.988 291.688 789.724 293.608 789.724 296.008V313H783.628Z"/>
</mask>
<path d="M638.368 313.432C634.016 313.432 630.544 312.44 627.952 310.456C625.392 308.44 623.888 305.608 623.44 301.96H629.44C629.728 304.072 630.672 305.72 632.272 306.904C633.872 308.056 635.968 308.632 638.56 308.632C640.704 308.632 642.336 308.248 643.456 307.48C644.608 306.68 645.184 305.576 645.184 304.168C645.184 302.92 644.832 301.912 644.128 301.144C643.424 300.376 642.24 299.752 640.576 299.272L634.336 297.4C631.168 296.44 628.832 295.176 627.328 293.608C625.856 292.04 625.12 290.072 625.12 287.704C625.12 285.72 625.632 283.992 626.656 282.52C627.68 281.048 629.12 279.912 630.976 279.112C632.864 278.312 635.056 277.912 637.552 277.912C641.392 277.912 644.448 278.856 646.72 280.744C649.024 282.6 650.336 285.128 650.656 288.328H644.656C644.304 286.408 643.504 285 642.256 284.104C641.008 283.176 639.328 282.712 637.216 282.712C635.36 282.712 633.888 283.08 632.8 283.816C631.712 284.552 631.168 285.56 631.168 286.84C631.168 287.896 631.488 288.792 632.128 289.528C632.8 290.264 634.032 290.904 635.824 291.448L642.16 293.368C645.328 294.296 647.632 295.56 649.072 297.16C650.512 298.76 651.232 300.792 651.232 303.256C651.232 306.52 650.096 309.032 647.824 310.792C645.584 312.552 642.432 313.432 638.368 313.432ZM657.315 322.84L663.651 308.632L664.755 306.808L671.667 288.52H678.099L663.459 322.84H657.315ZM662.739 312.76L652.803 288.52H659.379L667.683 310.504L662.739 312.76ZM690.217 313.48C686.825 313.48 684.121 312.776 682.105 311.368C680.089 309.928 678.985 307.944 678.793 305.416H684.313C684.473 306.664 685.065 307.608 686.089 308.248C687.113 308.888 688.489 309.208 690.217 309.208C691.785 309.208 692.953 308.968 693.721 308.488C694.521 307.976 694.921 307.256 694.921 306.328C694.921 305.656 694.697 305.112 694.249 304.696C693.801 304.248 692.953 303.88 691.705 303.592L687.769 302.68C685.081 302.104 683.081 301.208 681.769 299.992C680.489 298.744 679.849 297.192 679.849 295.336C679.849 293.064 680.713 291.288 682.441 290.008C684.201 288.696 686.617 288.04 689.689 288.04C692.729 288.04 695.161 288.696 696.985 290.008C698.841 291.288 699.865 293.064 700.057 295.336H694.537C694.377 294.344 693.865 293.592 693.001 293.08C692.169 292.568 691.017 292.312 689.545 292.312C688.169 292.312 687.129 292.536 686.425 292.984C685.721 293.4 685.369 294.024 685.369 294.856C685.369 295.496 685.641 296.04 686.185 296.488C686.729 296.904 687.641 297.272 688.921 297.592L693.145 298.552C695.545 299.096 697.353 300.04 698.569 301.384C699.817 302.728 700.441 304.312 700.441 306.136C700.441 308.472 699.545 310.28 697.753 311.56C695.961 312.84 693.449 313.48 690.217 313.48ZM715.521 313.48C712.513 313.48 710.289 312.776 708.849 311.368C707.441 309.928 706.737 307.784 706.737 304.936V282.952L712.833 280.696V305.08C712.833 306.264 713.153 307.144 713.793 307.72C714.433 308.296 715.441 308.584 716.817 308.584C717.361 308.584 717.841 308.552 718.257 308.488C718.705 308.392 719.121 308.28 719.505 308.152V312.856C719.121 313.048 718.577 313.192 717.873 313.288C717.169 313.416 716.385 313.48 715.521 313.48ZM702.033 293.272V288.52H719.505V293.272H702.033ZM734.271 313.48C731.679 313.48 729.407 312.936 727.455 311.848C725.535 310.76 724.031 309.256 722.943 307.336C721.887 305.416 721.359 303.208 721.359 300.712C721.359 298.216 721.887 296.024 722.943 294.136C724.031 292.216 725.535 290.728 727.455 289.672C729.375 288.584 731.615 288.04 734.174 288.04C736.607 288.04 738.719 288.552 740.511 289.576C742.303 290.568 743.695 291.976 744.687 293.8C745.679 295.624 746.175 297.752 746.175 300.184C746.175 300.632 746.159 301.048 746.127 301.432C746.095 301.816 746.047 302.2 745.983 302.584H725.103V298.36H741.327L740.079 299.512C740.079 297.208 739.551 295.48 738.495 294.328C737.439 293.176 735.967 292.6 734.079 292.6C732.031 292.6 730.399 293.304 729.183 294.712C727.999 296.12 727.407 298.152 727.407 300.808C727.407 303.432 727.999 305.448 729.183 306.856C730.399 308.232 732.111 308.92 734.319 308.92C735.599 308.92 736.719 308.68 737.679 308.2C738.639 307.72 739.343 306.984 739.791 305.992H745.503C744.703 308.296 743.343 310.12 741.423 311.464C739.535 312.808 737.151 313.48 734.271 313.48ZM750.7 313V288.52H756.604V294.28H756.748V313H750.7ZM767.164 313V297.208C767.164 295.768 766.796 294.712 766.06 294.04C765.356 293.336 764.348 292.984 763.036 292.984C761.884 292.984 760.828 293.256 759.868 293.8C758.908 294.344 758.14 295.112 757.564 296.104C757.02 297.096 756.748 298.248 756.748 299.56L756.124 293.944C756.956 292.152 758.156 290.728 759.724 289.672C761.292 288.584 763.116 288.04 765.196 288.04C767.692 288.04 769.66 288.76 771.1 290.2C772.54 291.608 773.26 293.432 773.26 295.672V313H767.164ZM783.628 313V297.208C783.628 295.768 783.276 294.712 782.572 294.04C781.868 293.336 780.86 292.984 779.548 292.984C778.364 292.984 777.292 293.256 776.332 293.8C775.372 294.344 774.62 295.112 774.076 296.104C773.532 297.096 773.26 298.248 773.26 299.56L772.204 293.944C773.004 292.152 774.22 290.728 775.852 289.672C777.484 288.584 779.372 288.04 781.516 288.04C784.076 288.04 786.076 288.776 787.516 290.248C788.988 291.688 789.724 293.608 789.724 296.008V313H783.628Z" fill="black"/>
<path d="M627.952 310.456L627.333 311.242L627.344 311.25L627.952 310.456ZM623.44 301.96V300.96H622.31L622.447 302.082L623.44 301.96ZM629.44 301.96L630.431 301.825L630.313 300.96H629.44V301.96ZM632.272 306.904L631.677 307.708L631.688 307.716L632.272 306.904ZM643.456 307.48L644.022 308.305L644.026 308.301L643.456 307.48ZM644.128 301.144L644.865 300.468L644.865 300.468L644.128 301.144ZM640.576 299.272L640.289 300.23L640.299 300.233L640.576 299.272ZM634.336 297.4L634.046 298.357L634.049 298.358L634.336 297.4ZM627.328 293.608L626.599 294.292L626.606 294.3L627.328 293.608ZM626.656 282.52L625.835 281.949L625.835 281.949L626.656 282.52ZM630.976 279.112L630.586 278.191L630.58 278.194L630.976 279.112ZM646.72 280.744L646.081 281.513L646.087 281.518L646.093 281.523L646.72 280.744ZM650.656 288.328V289.328H651.761L651.651 288.228L650.656 288.328ZM644.656 288.328L643.672 288.508L643.823 289.328H644.656V288.328ZM642.256 284.104L641.659 284.906L641.666 284.911L641.673 284.916L642.256 284.104ZM632.128 289.528L631.373 290.184L631.381 290.193L631.39 290.202L632.128 289.528ZM635.824 291.448L635.534 292.405L635.534 292.405L635.824 291.448ZM642.16 293.368L641.87 294.325L641.879 294.328L642.16 293.368ZM649.072 297.16L648.329 297.829L648.329 297.829L649.072 297.16ZM647.824 310.792L647.212 310.001L647.206 310.006L647.824 310.792ZM638.368 312.432C634.163 312.432 630.927 311.474 628.56 309.662L627.344 311.25C630.161 313.406 633.869 314.432 638.368 314.432V312.432ZM628.571 309.67C626.245 307.839 624.853 305.261 624.433 301.838L622.447 302.082C622.923 305.955 624.539 309.041 627.333 311.242L628.571 309.67ZM623.44 302.96H629.44V300.96H623.44V302.96ZM628.449 302.095C628.771 304.453 629.844 306.351 631.677 307.708L632.867 306.1C631.5 305.089 630.685 303.691 630.431 301.825L628.449 302.095ZM631.688 307.716C633.504 309.023 635.824 309.632 638.56 309.632V307.632C636.112 307.632 634.24 307.089 632.856 306.092L631.688 307.716ZM638.56 309.632C640.798 309.632 642.664 309.236 644.022 308.305L642.89 306.655C642.008 307.26 640.61 307.632 638.56 307.632V309.632ZM644.026 308.301C645.449 307.314 646.184 305.902 646.184 304.168H644.184C644.184 305.25 643.767 306.046 642.886 306.659L644.026 308.301ZM646.184 304.168C646.184 302.722 645.771 301.456 644.865 300.468L643.391 301.82C643.893 302.368 644.184 303.118 644.184 304.168H646.184ZM644.865 300.468C643.98 299.502 642.589 298.812 640.853 298.311L640.299 300.233C641.891 300.692 642.868 301.25 643.391 301.82L644.865 300.468ZM640.863 298.314L634.623 296.442L634.049 298.358L640.289 300.23L640.863 298.314ZM634.626 296.443C631.543 295.509 629.389 294.312 628.05 292.916L626.606 294.3C628.275 296.04 630.793 297.371 634.046 298.357L634.626 296.443ZM628.057 292.924C626.777 291.56 626.12 289.846 626.12 287.704H624.12C624.12 290.298 624.935 292.52 626.599 294.292L628.057 292.924ZM626.12 287.704C626.12 285.901 626.582 284.378 627.477 283.091L625.835 281.949C624.682 283.606 624.12 285.539 624.12 287.704H626.12ZM627.477 283.091C628.381 281.791 629.665 280.766 631.372 280.03L630.58 278.194C628.575 279.058 626.979 280.305 625.835 281.949L627.477 283.091ZM631.366 280.033C633.107 279.295 635.162 278.912 637.552 278.912V276.912C634.95 276.912 632.621 277.329 630.586 278.191L631.366 280.033ZM637.552 278.912C641.23 278.912 644.036 279.814 646.081 281.513L647.359 279.975C644.86 277.898 641.554 276.912 637.552 276.912V278.912ZM646.093 281.523C648.169 283.195 649.365 285.468 649.661 288.428L651.651 288.228C651.307 284.788 649.879 282.005 647.347 279.965L646.093 281.523ZM650.656 287.328H644.656V289.328H650.656V287.328ZM645.64 288.148C645.254 286.045 644.35 284.376 642.839 283.292L641.673 284.916C642.658 285.624 643.354 286.771 643.672 288.508L645.64 288.148ZM642.853 283.302C641.38 282.206 639.467 281.712 637.216 281.712V283.712C639.189 283.712 640.636 284.146 641.659 284.906L642.853 283.302ZM637.216 281.712C635.24 281.712 633.548 282.102 632.24 282.988L633.36 284.644C634.228 284.058 635.48 283.712 637.216 283.712V281.712ZM632.24 282.988C630.885 283.904 630.168 285.218 630.168 286.84H632.168C632.168 285.902 632.539 285.2 633.36 284.644L632.24 282.988ZM630.168 286.84C630.168 288.116 630.562 289.251 631.373 290.184L632.883 288.872C632.414 288.333 632.168 287.676 632.168 286.84H630.168ZM631.39 290.202C632.249 291.143 633.697 291.847 635.534 292.405L636.114 290.491C634.367 289.961 633.351 289.385 632.866 288.854L631.39 290.202ZM635.534 292.405L641.87 294.325L642.45 292.411L636.114 290.491L635.534 292.405ZM641.879 294.328C644.957 295.229 647.062 296.422 648.329 297.829L649.815 296.491C648.202 294.698 645.699 293.363 642.441 292.408L641.879 294.328ZM648.329 297.829C649.58 299.219 650.232 301.001 650.232 303.256H652.232C652.232 300.583 651.444 298.301 649.815 296.491L648.329 297.829ZM650.232 303.256C650.232 306.258 649.204 308.458 647.212 310.001L648.436 311.583C650.988 309.606 652.232 306.782 652.232 303.256H650.232ZM647.206 310.006C645.204 311.579 642.301 312.432 638.368 312.432V314.432C642.563 314.432 645.964 313.525 648.442 311.578L647.206 310.006ZM657.315 322.84L656.401 322.433L655.774 323.84H657.315V322.84ZM663.651 308.632L662.795 308.114L662.763 308.168L662.737 308.225L663.651 308.632ZM664.755 306.808L665.61 307.326L665.657 307.247L665.69 307.162L664.755 306.808ZM671.667 288.52V287.52H670.975L670.731 288.166L671.667 288.52ZM678.099 288.52L679.018 288.912L679.612 287.52H678.099V288.52ZM663.459 322.84V323.84H664.119L664.378 323.232L663.459 322.84ZM662.739 312.76L661.813 313.139L662.208 314.101L663.154 313.67L662.739 312.76ZM652.803 288.52V287.52H651.312L651.877 288.899L652.803 288.52ZM659.379 288.52L660.314 288.167L660.07 287.52H659.379V288.52ZM667.683 310.504L668.098 311.414L668.948 311.026L668.618 310.151L667.683 310.504ZM658.228 323.247L664.564 309.039L662.737 308.225L656.401 322.433L658.228 323.247ZM664.506 309.15L665.61 307.326L663.899 306.29L662.795 308.114L664.506 309.15ZM665.69 307.162L672.602 288.874L670.731 288.166L663.819 306.454L665.69 307.162ZM671.667 289.52H678.099V287.52H671.667V289.52ZM677.179 288.128L662.539 322.448L664.378 323.232L679.018 288.912L677.179 288.128ZM663.459 321.84H657.315V323.84H663.459V321.84ZM663.664 312.381L653.728 288.141L651.877 288.899L661.813 313.139L663.664 312.381ZM652.803 289.52H659.379V287.52H652.803V289.52ZM658.443 288.873L666.747 310.857L668.618 310.151L660.314 288.167L658.443 288.873ZM667.267 309.594L662.323 311.85L663.154 313.67L668.098 311.414L667.267 309.594ZM682.105 311.368L681.523 312.182L681.532 312.188L682.105 311.368ZM678.793 305.416V304.416H677.714L677.795 305.492L678.793 305.416ZM684.313 305.416L685.305 305.289L685.193 304.416H684.313V305.416ZM686.089 308.248L686.619 307.4L686.619 307.4L686.089 308.248ZM693.721 308.488L694.251 309.336L694.26 309.33L693.721 308.488ZM694.249 304.696L693.542 305.403L693.555 305.416L693.568 305.429L694.249 304.696ZM691.705 303.592L691.479 304.566L691.48 304.566L691.705 303.592ZM687.769 302.68L687.994 301.706L687.986 301.704L687.978 301.702L687.769 302.68ZM681.769 299.992L681.071 300.708L681.08 300.717L681.089 300.725L681.769 299.992ZM682.441 290.008L683.036 290.812L683.038 290.81L682.441 290.008ZM696.985 290.008L696.401 290.82L696.409 290.826L696.417 290.831L696.985 290.008ZM700.057 295.336V296.336H701.145L701.053 295.252L700.057 295.336ZM694.537 295.336L693.549 295.495L693.685 296.336H694.537V295.336ZM693.001 293.08L692.477 293.932L692.484 293.936L692.491 293.94L693.001 293.08ZM686.425 292.984L686.933 293.845L686.948 293.837L686.962 293.828L686.425 292.984ZM686.185 296.488L685.549 297.26L685.563 297.271L685.577 297.282L686.185 296.488ZM688.921 297.592L688.678 298.562L688.689 298.565L688.699 298.567L688.921 297.592ZM693.145 298.552L692.923 299.527L692.924 299.527L693.145 298.552ZM698.569 301.384L697.827 302.055L697.836 302.064L698.569 301.384ZM697.753 311.56L698.334 312.374L698.334 312.374L697.753 311.56ZM690.217 312.48C686.954 312.48 684.472 311.802 682.677 310.548L681.532 312.188C683.769 313.75 686.695 314.48 690.217 314.48V312.48ZM682.686 310.554C680.917 309.291 679.96 307.581 679.79 305.34L677.795 305.492C678.009 308.307 679.26 310.565 681.523 312.182L682.686 310.554ZM678.793 306.416H684.313V304.416H678.793V306.416ZM683.321 305.543C683.517 307.074 684.268 308.29 685.559 309.096L686.619 307.4C685.861 306.926 685.428 306.254 685.305 305.289L683.321 305.543ZM685.559 309.096C686.796 309.869 688.378 310.208 690.217 310.208V308.208C688.599 308.208 687.429 307.907 686.619 307.4L685.559 309.096ZM690.217 310.208C691.852 310.208 693.246 309.964 694.251 309.336L693.191 307.64C692.66 307.972 691.718 308.208 690.217 308.208V310.208ZM694.26 309.33C695.339 308.64 695.921 307.607 695.921 306.328H693.921C693.921 306.905 693.703 307.312 693.182 307.646L694.26 309.33ZM695.921 306.328C695.921 305.409 695.602 304.588 694.929 303.963L693.568 305.429C693.791 305.636 693.921 305.903 693.921 306.328H695.921ZM694.956 303.989C694.297 303.33 693.208 302.913 691.929 302.618L691.48 304.566C692.698 304.847 693.305 305.166 693.542 305.403L694.956 303.989ZM691.93 302.618L687.994 301.706L687.543 303.654L691.479 304.566L691.93 302.618ZM687.978 301.702C685.379 301.145 683.576 300.304 682.448 299.259L681.089 300.725C682.585 302.112 684.782 303.063 687.559 303.658L687.978 301.702ZM682.467 299.276C681.388 298.224 680.849 296.934 680.849 295.336H678.849C678.849 297.45 679.589 299.264 681.071 300.708L682.467 299.276ZM680.849 295.336C680.849 293.36 681.579 291.891 683.036 290.812L681.845 289.204C679.846 290.685 678.849 292.768 678.849 295.336H680.849ZM683.038 290.81C684.569 289.669 686.748 289.04 689.689 289.04V287.04C686.485 287.04 683.833 287.723 681.843 289.206L683.038 290.81ZM689.689 289.04C692.592 289.04 694.798 289.667 696.401 290.82L697.569 289.196C695.524 287.725 692.865 287.04 689.689 287.04V289.04ZM696.417 290.831C698.023 291.939 698.893 293.442 699.06 295.42L701.053 295.252C700.836 292.686 699.658 290.637 697.552 289.185L696.417 290.831ZM700.057 294.336H694.537V296.336H700.057V294.336ZM695.524 295.177C695.317 293.892 694.63 292.883 693.51 292.22L692.491 293.94C693.099 294.301 693.437 294.796 693.549 295.495L695.524 295.177ZM693.525 292.228C692.475 291.582 691.115 291.312 689.545 291.312V293.312C690.919 293.312 691.863 293.554 692.477 293.932L693.525 292.228ZM689.545 291.312C688.089 291.312 686.825 291.544 685.888 292.14L686.962 293.828C687.432 293.528 688.248 293.312 689.545 293.312V291.312ZM685.916 292.123C684.901 292.723 684.369 293.678 684.369 294.856H686.369C686.369 294.37 686.54 294.077 686.933 293.845L685.916 292.123ZM684.369 294.856C684.369 295.827 684.801 296.644 685.549 297.26L686.82 295.716C686.481 295.436 686.369 295.165 686.369 294.856H684.369ZM685.577 297.282C686.289 297.827 687.366 298.234 688.678 298.562L689.163 296.622C687.916 296.31 687.168 295.981 686.792 295.694L685.577 297.282ZM688.699 298.567L692.923 299.527L693.366 297.577L689.142 296.617L688.699 298.567ZM692.924 299.527C695.193 300.042 696.791 300.909 697.827 302.055L699.31 300.713C697.915 299.171 695.896 298.15 693.366 297.577L692.924 299.527ZM697.836 302.064C698.913 303.225 699.441 304.566 699.441 306.136H701.441C701.441 304.058 700.72 302.231 699.301 300.704L697.836 302.064ZM699.441 306.136C699.441 308.172 698.682 309.667 697.171 310.746L698.334 312.374C700.407 310.893 701.441 308.772 701.441 306.136H699.441ZM697.171 310.746C695.612 311.86 693.333 312.48 690.217 312.48V314.48C693.564 314.48 696.31 313.82 698.334 312.374L697.171 310.746ZM708.849 311.368L708.133 312.067L708.141 312.075L708.149 312.083L708.849 311.368ZM706.737 282.952L706.389 282.014L705.737 282.256V282.952H706.737ZM712.833 280.696H713.833V279.26L712.485 279.758L712.833 280.696ZM713.793 307.72L714.461 306.977L714.461 306.977L713.793 307.72ZM718.257 308.488L718.409 309.476L718.437 309.472L718.466 309.466L718.257 308.488ZM719.505 308.152H720.505V306.765L719.188 307.203L719.505 308.152ZM719.505 312.856L719.952 313.75L720.505 313.474V312.856H719.505ZM717.873 313.288L717.737 312.297L717.715 312.3L717.694 312.304L717.873 313.288ZM702.033 293.272H701.033V294.272H702.033V293.272ZM702.033 288.52V287.52H701.033V288.52H702.033ZM719.505 288.52H720.505V287.52H719.505V288.52ZM719.505 293.272V294.272H720.505V293.272H719.505ZM715.521 312.48C712.647 312.48 710.726 311.805 709.548 310.653L708.149 312.083C709.851 313.747 712.378 314.48 715.521 314.48V312.48ZM709.564 310.669C708.402 309.481 707.737 307.632 707.737 304.936H705.737C705.737 307.936 706.479 310.375 708.133 312.067L709.564 310.669ZM707.737 304.936V282.952H705.737V304.936H707.737ZM707.084 283.89L713.18 281.634L712.485 279.758L706.389 282.014L707.084 283.89ZM711.833 280.696V305.08H713.833V280.696H711.833ZM711.833 305.08C711.833 306.437 712.203 307.635 713.124 308.463L714.461 306.977C714.102 306.653 713.833 306.091 713.833 305.08H711.833ZM713.124 308.463C714.03 309.279 715.334 309.584 716.817 309.584V307.584C715.547 307.584 714.835 307.313 714.461 306.977L713.124 308.463ZM716.817 309.584C717.398 309.584 717.93 309.55 718.409 309.476L718.104 307.5C717.751 307.554 717.323 307.584 716.817 307.584V309.584ZM718.466 309.466C718.945 309.363 719.398 309.242 719.821 309.101L719.188 307.203C718.843 307.318 718.464 307.421 718.047 307.51L718.466 309.466ZM718.505 308.152V312.856H720.505V308.152H718.505ZM719.057 311.962C718.815 312.083 718.394 312.208 717.737 312.297L718.008 314.279C718.759 314.176 719.426 314.013 719.952 313.75L719.057 311.962ZM717.694 312.304C717.059 312.419 716.336 312.48 715.521 312.48V314.48C716.433 314.48 717.278 314.413 718.051 314.272L717.694 312.304ZM703.033 293.272V288.52H701.033V293.272H703.033ZM702.033 289.52H719.505V287.52H702.033V289.52ZM718.505 288.52V293.272H720.505V288.52H718.505ZM719.505 292.272H702.033V294.272H719.505V292.272ZM727.455 311.848L726.961 312.718L726.968 312.721L727.455 311.848ZM722.943 307.336L722.066 307.818L722.072 307.829L722.943 307.336ZM722.943 294.136L722.072 293.643L722.07 293.648L722.943 294.136ZM727.455 289.672L727.936 290.548L727.948 290.542L727.455 289.672ZM740.511 289.576L740.014 290.444L740.026 290.451L740.511 289.576ZM744.687 293.8L743.808 294.278L743.808 294.278L744.687 293.8ZM746.127 301.432L747.123 301.515L747.123 301.515L746.127 301.432ZM745.983 302.584V303.584H746.83L746.969 302.748L745.983 302.584ZM725.103 302.584H724.103V303.584H725.103V302.584ZM725.103 298.36V297.36H724.103V298.36H725.103ZM741.327 298.36L742.005 299.095L743.884 297.36H741.327V298.36ZM740.079 299.512H739.079V301.796L740.757 300.247L740.079 299.512ZM738.495 294.328L737.757 295.004L737.757 295.004L738.495 294.328ZM729.183 294.712L728.426 294.058L728.417 294.068L729.183 294.712ZM729.183 306.856L728.417 307.5L728.425 307.509L728.433 307.518L729.183 306.856ZM739.791 305.992V304.992H739.145L738.879 305.58L739.791 305.992ZM745.503 305.992L746.447 306.32L746.908 304.992H745.503V305.992ZM741.423 311.464L740.849 310.645L740.843 310.649L741.423 311.464ZM734.271 312.48C731.821 312.48 729.722 311.967 727.941 310.975L726.968 312.721C729.091 313.905 731.536 314.48 734.271 314.48V312.48ZM727.948 310.978C726.185 309.979 724.811 308.606 723.813 306.843L722.072 307.829C723.25 309.906 724.884 311.541 726.961 312.718L727.948 310.978ZM723.819 306.854C722.855 305.101 722.359 303.063 722.359 300.712H720.359C720.359 303.353 720.918 305.731 722.066 307.818L723.819 306.854ZM722.359 300.712C722.359 298.36 722.855 296.341 723.815 294.624L722.07 293.648C720.918 295.707 720.359 298.072 720.359 300.712H722.359ZM723.813 294.629C724.81 292.869 726.18 291.514 727.936 290.548L726.973 288.796C724.889 289.942 723.251 291.563 722.072 293.643L723.813 294.629ZM727.948 290.542C729.695 289.552 731.759 289.04 734.174 289.04V287.04C731.47 287.04 729.054 287.616 726.961 288.802L727.948 290.542ZM734.174 289.04C736.464 289.04 738.398 289.521 740.014 290.444L741.007 288.708C739.039 287.583 736.749 287.04 734.174 287.04V289.04ZM740.026 290.451C741.649 291.349 742.906 292.619 743.808 294.278L745.565 293.322C744.483 291.333 742.956 289.787 740.995 288.701L740.026 290.451ZM743.808 294.278C744.708 295.932 745.175 297.89 745.175 300.184H747.175C747.175 297.614 746.649 295.316 745.565 293.322L743.808 294.278ZM745.175 300.184C745.175 300.609 745.159 300.997 745.13 301.349L747.123 301.515C747.158 301.099 747.175 300.655 747.175 300.184H745.175ZM745.13 301.349C745.1 301.705 745.056 302.062 744.996 302.42L746.969 302.748C747.037 302.338 747.089 301.927 747.123 301.515L745.13 301.349ZM745.983 301.584H725.103V303.584H745.983V301.584ZM726.103 302.584V298.36H724.103V302.584H726.103ZM725.103 299.36H741.327V297.36H725.103V299.36ZM740.648 297.625L739.4 298.777L740.757 300.247L742.005 299.095L740.648 297.625ZM741.079 299.512C741.079 297.074 740.522 295.06 739.232 293.652L737.757 295.004C738.579 295.9 739.079 297.342 739.079 299.512H741.079ZM739.232 293.652C737.947 292.251 736.184 291.6 734.079 291.6V293.6C735.749 293.6 736.93 294.101 737.757 295.004L739.232 293.652ZM734.079 291.6C731.773 291.6 729.852 292.407 728.426 294.058L729.939 295.366C730.945 294.201 732.288 293.6 734.079 293.6V291.6ZM728.417 294.068C727.027 295.722 726.407 298.019 726.407 300.808H728.407C728.407 298.285 728.97 296.518 729.948 295.356L728.417 294.068ZM726.407 300.808C726.407 303.569 727.028 305.848 728.417 307.5L729.948 306.212C728.969 305.048 728.407 303.295 728.407 300.808H726.407ZM728.433 307.518C729.877 309.152 731.887 309.92 734.319 309.92V307.92C732.334 307.92 730.92 307.312 729.932 306.194L728.433 307.518ZM734.319 309.92C735.724 309.92 737.003 309.656 738.126 309.094L737.231 307.306C736.434 307.704 735.473 307.92 734.319 307.92V309.92ZM738.126 309.094C739.294 308.51 740.161 307.602 740.702 306.404L738.879 305.58C738.524 306.366 737.983 306.93 737.231 307.306L738.126 309.094ZM739.791 306.992H745.503V304.992H739.791V306.992ZM744.558 305.664C743.824 307.778 742.589 309.427 740.849 310.645L741.996 312.283C744.096 310.813 745.581 308.814 746.447 306.32L744.558 305.664ZM740.843 310.649C739.161 311.846 736.994 312.48 734.271 312.48V314.48C737.307 314.48 739.908 313.77 742.002 312.279L740.843 310.649ZM750.7 313H749.7V314H750.7V313ZM750.7 288.52V287.52H749.7V288.52H750.7ZM756.604 288.52H757.604V287.52H756.604V288.52ZM756.604 294.28H755.604V295.28H756.604V294.28ZM756.748 294.28H757.748V293.28H756.748V294.28ZM756.748 313V314H757.748V313H756.748ZM767.164 313H766.164V314H767.164V313ZM766.06 294.04L765.353 294.747L765.369 294.763L765.386 294.778L766.06 294.04ZM759.868 293.8L760.361 294.67L760.361 294.67L759.868 293.8ZM757.564 296.104L756.7 295.602L756.693 295.612L756.688 295.623L757.564 296.104ZM756.748 299.56L755.754 299.67L757.748 299.56H756.748ZM756.124 293.944L755.217 293.523L755.1 293.777L755.13 294.054L756.124 293.944ZM759.724 289.672L760.283 290.502L760.294 290.494L759.724 289.672ZM771.1 290.2L770.393 290.907L770.401 290.915L771.1 290.2ZM773.26 313V314H774.26V313H773.26ZM783.628 313H782.628V314H783.628V313ZM782.572 294.04L781.865 294.747L781.873 294.755L781.882 294.763L782.572 294.04ZM776.332 293.8L775.839 292.93L775.839 292.93L776.332 293.8ZM774.076 296.104L773.2 295.623L773.2 295.623L774.076 296.104ZM773.26 299.56L772.278 299.745L774.26 299.56H773.26ZM772.204 293.944L771.291 293.536L771.164 293.822L771.222 294.129L772.204 293.944ZM775.852 289.672L776.396 290.512L776.407 290.504L775.852 289.672ZM787.516 290.248L786.802 290.947L786.809 290.955L786.817 290.963L787.516 290.248ZM789.724 313V314H790.724V313H789.724ZM751.7 313V288.52H749.7V313H751.7ZM750.7 289.52H756.604V287.52H750.7V289.52ZM755.604 288.52V294.28H757.604V288.52H755.604ZM756.604 295.28H756.748V293.28H756.604V295.28ZM755.748 294.28V313H757.748V294.28H755.748ZM756.748 312H750.7V314H756.748V312ZM768.164 313V297.208H766.164V313H768.164ZM768.164 297.208C768.164 295.614 767.756 294.234 766.735 293.302L765.386 294.778C765.836 295.19 766.164 295.922 766.164 297.208H768.164ZM766.767 293.333C765.822 292.387 764.526 291.984 763.036 291.984V293.984C764.171 293.984 764.891 294.285 765.353 294.747L766.767 293.333ZM763.036 291.984C761.719 291.984 760.492 292.297 759.375 292.93L760.361 294.67C761.164 294.215 762.049 293.984 763.036 293.984V291.984ZM759.375 292.93C758.255 293.565 757.361 294.463 756.7 295.602L758.429 296.606C758.92 295.761 759.562 295.123 760.361 294.67L759.375 292.93ZM756.688 295.623C756.051 296.785 755.748 298.107 755.748 299.56H757.748C757.748 298.389 757.99 297.407 758.441 296.585L756.688 295.623ZM757.742 299.45L757.118 293.834L755.13 294.054L755.754 299.67L757.742 299.45ZM757.031 294.365C757.79 292.731 758.873 291.451 760.283 290.501L759.166 288.843C757.44 290.005 756.122 291.573 755.217 293.523L757.031 294.365ZM760.294 290.494C761.68 289.532 763.301 289.04 765.196 289.04V287.04C762.932 287.04 760.905 287.636 759.154 288.85L760.294 290.494ZM765.196 289.04C767.491 289.04 769.181 289.695 770.393 290.907L771.807 289.493C770.139 287.825 767.894 287.04 765.196 287.04V289.04ZM770.401 290.915C771.626 292.113 772.26 293.668 772.26 295.672H774.26C774.26 293.196 773.454 291.103 771.799 289.485L770.401 290.915ZM772.26 295.672V313H774.26V295.672H772.26ZM773.26 312H767.164V314H773.26V312ZM784.628 313V297.208H782.628V313H784.628ZM784.628 297.208C784.628 295.626 784.243 294.252 783.263 293.317L781.882 294.763C782.31 295.172 782.628 295.91 782.628 297.208H784.628ZM783.279 293.333C782.334 292.387 781.038 291.984 779.548 291.984V293.984C780.683 293.984 781.403 294.285 781.865 294.747L783.279 293.333ZM779.548 291.984C778.205 291.984 776.961 292.295 775.839 292.93L776.825 294.67C777.624 294.217 778.524 293.984 779.548 293.984V291.984ZM775.839 292.93C774.714 293.568 773.83 294.473 773.2 295.623L774.953 296.585C775.41 295.751 776.031 295.12 776.825 294.67L775.839 292.93ZM773.2 295.623C772.563 296.785 772.26 298.107 772.26 299.56H774.26C774.26 298.389 774.502 297.407 774.953 296.585L773.2 295.623ZM774.243 299.375L773.187 293.759L771.222 294.129L772.278 299.745L774.243 299.375ZM773.118 294.352C773.839 292.735 774.928 291.461 776.396 290.512L775.309 288.832C773.513 289.995 772.169 291.569 771.291 293.536L773.118 294.352ZM776.407 290.504C777.86 289.536 779.551 289.04 781.516 289.04V287.04C779.194 287.04 777.109 287.632 775.298 288.84L776.407 290.504ZM781.516 289.04C783.877 289.04 785.593 289.712 786.802 290.947L788.231 289.549C786.559 287.84 784.276 287.04 781.516 287.04V289.04ZM786.817 290.963C788.065 292.183 788.724 293.829 788.724 296.008H790.724C790.724 293.387 789.912 291.193 788.216 289.533L786.817 290.963ZM788.724 296.008V313H790.724V296.008H788.724ZM789.724 312H783.628V314H789.724V312Z" fill="#1F9BEE" fill-opacity="0.51" mask="url(#path-6-outside-2_12_14)"/>
</svg>
